<svg width="400" height="400" viewBox="0 0 400 400" fill="none" xmlns="http://www.w3.org/2000/svg">
<g clip-path="url(#clip0_40_1639)">
<path d="M394.911 299.999C398.05 295.168 400 289.725 400 284.837V115.162C400 110.274 398.052 104.832 394.912 100.001L200 200L394.911 299.999Z" fill="#00599C"/>
<path d="M217.32 396.333L382.68 311.496C387.443 309.052 391.773 304.832 394.911 299.999L200 200L5.08887 300.001C8.22743 304.832 12.5581 309.053 17.3202 311.496L182.68 396.333C192.205 401.221 207.795 401.221 217.32 396.333Z" fill="#004482"/>
<path d="M394.912 99.9994C391.773 95.1671 387.442 90.947 382.68 88.503L217.32 3.66604C207.795 -1.22201 192.205 -1.22201 182.68 3.66604L17.3203 88.503C7.79346 93.3899 0 105.387 0 115.162V284.837C0 289.725 1.94902 295.168 5.08889 299.999L200 200L394.912 99.9994Z" fill="#659AD2"/>
<path d="M200 318.484C126.48 318.484 66.6666 265.332 66.6666 200C66.6666 134.668 126.48 81.5159 200 81.5159C247.44 81.5159 291.685 104.202 315.465 140.721L257.762 170.393C245.86 152.114 223.725 140.758 200 140.758C163.239 140.758 133.333 167.333 133.333 200C133.333 232.666 163.239 259.242 200 259.242C223.728 259.242 245.863 247.886 257.766 229.604L315.469 259.275C291.689 295.797 247.443 318.484 200 318.484Z" fill="white"/>
<path d="M333.333 193.417H318.518V180.253H303.705V193.417H288.889V206.582H303.705V219.747H318.518V206.582H333.333V193.417Z" fill="white"/>
<path d="M388.889 193.417H374.073V180.253H359.26V193.417H344.444V206.582H359.26V219.747H374.073V206.582H388.889V193.417Z" fill="white"/>
</g>
<defs>
<clipPath id="clip0_40_1639">
<rect width="400" height="400" fill="white"/>
</clipPath>
</defs>
</svg>
