<svg width="400" height="400" viewBox="0 0 400 400" fill="none" xmlns="http://www.w3.org/2000/svg">
<g clip-path="url(#clip0_40_1627)">
<path d="M400 78.6094L363.559 367.827L199.755 400L36.4027 367.873L0.000244141 78.6094H400Z" fill="#264DE4"/>
<path d="M332.361 349.411L363.503 102.261H200V375.409L332.361 349.411Z" fill="#2965F1"/>
<path d="M83.4518 209.545L87.9399 245.021H200V209.545H83.4518Z" fill="#EBEBEB"/>
<path d="M200 137.738H199.827H74.4336L78.9857 173.216H200V137.738Z" fill="#EBEBEB"/>
<path d="M200 338.593V301.682L199.781 301.723L144.011 291.055L140.446 262.76H113.346H90.1774L97.193 318.464L199.77 338.638L200 338.593Z" fill="#EBEBEB"/>
<path d="M94.1372 0H154.788V17.9688H119.5V35.9375H154.788V53.9062H94.1372V0Z" fill="black"/>
<path d="M166.918 0H227.568V15.625H192.281V18.75H227.568V54.6875H166.918V38.2812H202.205V35.1562H166.918V0Z" fill="black"/>
<path d="M239.698 0H300.349V15.625H265.061V18.75H300.349V54.6875H239.698V38.2812H274.986V35.1562H239.698V0Z" fill="black"/>
<path d="M261.49 245.021L255.677 291.032L199.827 301.712V338.621L302.485 318.464L303.238 312.47L315.005 219.071L316.227 209.545L325.267 137.738H199.827V173.216H270.389L265.832 209.545H199.827V245.021H261.49Z" fill="white"/>
</g>
<defs>
<clipPath id="clip0_40_1627">
<rect width="400" height="400" fill="white"/>
</clipPath>
</defs>
</svg>
