<svg width="597" height="400" viewBox="0 0 597 400" fill="none" xmlns="http://www.w3.org/2000/svg">
<path d="M345.215 104.915H398.736V158.54H425.798C438.295 158.54 451.149 156.358 462.984 152.428C468.799 150.495 475.327 147.805 481.063 144.423C473.508 134.755 469.65 122.546 468.515 110.513C466.973 94.1458 470.341 72.842 481.643 60.0319L487.269 53.6539L493.973 58.9359C510.853 72.2276 525.048 90.8002 527.55 111.973C547.874 106.113 571.736 107.499 589.65 117.633L597 121.79L593.132 129.19C577.981 158.173 546.307 167.151 515.34 165.562C469.002 278.683 368.119 332.238 245.799 332.238C182.604 332.238 124.624 309.084 91.6079 254.129C89.6721 250.716 88.0144 247.146 86.2564 243.64C75.0959 219.45 71.3891 192.95 73.9038 166.472L74.6584 158.541H120.425V104.916H173.946V52.4581H280.988V0H345.214L345.215 104.915Z" fill="#394D54"/>
<mask id="mask0_41_1838" style="mask-type:luminance" maskUnits="userSpaceOnUse" x="82" y="4" width="504" height="320">
<path d="M177.889 4.58725V110.118H126.395V162.884H83.2819C83.0989 164.411 82.9507 165.942 82.8003 167.472C80.1058 196.22 85.2262 222.733 96.9904 245.402L100.94 252.356C103.308 256.524 106.069 260.438 108.986 264.257C111.9 268.071 112.932 270.182 114.765 272.716C145.869 306.981 192.236 323.474 245.767 323.474C364.317 323.474 464.928 271.998 509.455 156.36C541.046 159.537 571.35 151.597 585.16 125.174C563.161 112.731 534.887 116.719 518.598 124.743L561.754 4.58725L393.228 110.118H339.393V4.58725H177.889Z" fill="white"/>
</mask>
<g mask="url(#mask0_41_1838)">
<path d="M289.909 8.7408H336.295V54.2064H289.909V8.7408Z" fill="#20C2EF"/>
<path d="M295.605 50.4173V12.5277ZM302.561 50.4173V12.5277ZM309.587 50.4173V12.5277ZM316.617 50.4173V12.5277ZM323.646 50.4173V12.5277ZM330.6 50.4173V12.5277Z" fill="black"/>
<path d="M295.605 50.4173V12.5277M302.561 50.4173V12.5277M309.587 50.4173V12.5277M316.617 50.4173V12.5277M323.646 50.4173V12.5277M330.6 50.4173V12.5277" stroke="#394D54" stroke-width="1.56"/>
<path d="M343.431 54.2042H389.816V8.74104H343.431V54.2042Z" fill="#00ACD3"/>
<path d="M349.126 12.529V50.4187ZM356.082 12.529V50.4187ZM363.108 12.529V50.4187ZM370.138 12.529V50.4187ZM377.167 12.529V50.4187ZM384.122 12.529V50.4187Z" fill="black"/>
<path d="M349.126 12.529V50.4187M356.082 12.529V50.4187M363.108 12.529V50.4187M370.138 12.529V50.4187M377.167 12.529V50.4187M384.122 12.529V50.4187" stroke="#394D54" stroke-width="1.56"/>
<path d="M75.8252 61.2001H122.211V106.663H75.8252V61.2001Z" fill="#00ACD3"/>
<path d="M75.8252 113.657H122.211V159.123H75.8252V113.657Z" fill="#20C2EF"/>
<path d="M81.5205 102.875V64.9858ZM88.4766 102.875V64.9858ZM95.5028 102.875V64.9858ZM102.533 102.875V64.9858ZM109.561 102.875V64.9858ZM116.516 102.875V64.9858Z" fill="black"/>
<path d="M81.5205 102.875V64.9858M88.4766 102.875V64.9858M95.5028 102.875V64.9858M102.533 102.875V64.9858M109.561 102.875V64.9858M116.516 102.875V64.9858" stroke="#394D54" stroke-width="1.56"/>
<path d="M81.5205 155.333V117.444ZM88.4766 155.333V117.444ZM95.5028 155.333V117.444ZM102.533 155.333V117.444ZM109.561 155.333V117.444ZM116.516 155.333V117.444Z" fill="black"/>
<path d="M81.5205 155.333V117.444M88.4766 155.333V117.444M95.5028 155.333V117.444M102.533 155.333V117.444M109.561 155.333V117.444M116.516 155.333V117.444" stroke="#394D54" stroke-width="1.56"/>
<path d="M129.346 159.12H175.732V113.657H129.346V159.12Z" fill="#00ACD3"/>
<path d="M129.346 106.664H175.732V61.198H129.346V106.664Z" fill="#20C2EF"/>
<path d="M135.042 117.445V155.335ZM141.998 117.445V155.335ZM149.024 117.445V155.335ZM156.054 117.445V155.335ZM163.083 117.445V155.335ZM170.038 117.445V155.335Z" fill="black"/>
<path d="M135.042 117.445V155.335M141.998 117.445V155.335M149.024 117.445V155.335M156.054 117.445V155.335M163.083 117.445V155.335M170.038 117.445V155.335" stroke="#394D54" stroke-width="1.56"/>
<path d="M135.042 64.9871V102.877ZM141.998 64.9871V102.877ZM149.024 64.9871V102.877ZM156.054 64.9871V102.877ZM163.083 64.9871V102.877ZM170.038 64.9871V102.877Z" fill="black"/>
<path d="M135.042 64.9871V102.877M141.998 64.9871V102.877M149.024 64.9871V102.877M156.054 64.9871V102.877M163.083 64.9871V102.877M170.038 64.9871V102.877" stroke="#394D54" stroke-width="1.56"/>
<path d="M182.867 61.2001H229.253V106.663H182.867V61.2001Z" fill="#00ACD3"/>
<path d="M182.867 113.657H229.253V159.123H182.867V113.657Z" fill="#20C2EF"/>
<path d="M188.562 102.875V64.9858ZM195.519 102.875V64.9858ZM202.545 102.875V64.9858ZM209.575 102.875V64.9858ZM216.603 102.875V64.9858ZM223.558 102.875V64.9858Z" fill="black"/>
<path d="M188.562 102.875V64.9858M195.519 102.875V64.9858M202.545 102.875V64.9858M209.575 102.875V64.9858M216.603 102.875V64.9858M223.558 102.875V64.9858" stroke="#394D54" stroke-width="1.56"/>
<path d="M188.562 155.333V117.444ZM195.519 155.333V117.444ZM202.545 155.333V117.444ZM209.575 155.333V117.444ZM216.603 155.333V117.444ZM223.558 155.333V117.444Z" fill="black"/>
<path d="M188.562 155.333V117.444M195.519 155.333V117.444M202.545 155.333V117.444M209.575 155.333V117.444M216.603 155.333V117.444M223.558 155.333V117.444" stroke="#394D54" stroke-width="1.56"/>
<path d="M236.388 159.12H282.774V113.657H236.388V159.12Z" fill="#00ACD3"/>
<path d="M236.388 106.664H282.774V61.198H236.388V106.664Z" fill="#20C2EF"/>
<path d="M242.084 117.445V155.335ZM249.04 117.445V155.335ZM256.066 117.445V155.335ZM263.096 117.445V155.335ZM270.125 117.445V155.335ZM277.079 117.445V155.335Z" fill="black"/>
<path d="M242.084 117.445V155.335M249.04 117.445V155.335M256.066 117.445V155.335M263.096 117.445V155.335M270.125 117.445V155.335M277.079 117.445V155.335" stroke="#394D54" stroke-width="1.56"/>
<path d="M242.084 64.9871V102.877ZM249.04 64.9871V102.877ZM256.066 64.9871V102.877ZM263.096 64.9871V102.877ZM270.125 64.9871V102.877ZM277.079 64.9871V102.877Z" fill="black"/>
<path d="M242.084 64.9871V102.877M249.04 64.9871V102.877M256.066 64.9871V102.877M263.096 64.9871V102.877M270.125 64.9871V102.877M277.079 64.9871V102.877" stroke="#394D54" stroke-width="1.56"/>
<path d="M289.909 61.2001H336.295V106.663H289.909V61.2001Z" fill="#00ACD3"/>
<path d="M289.909 113.657H336.295V159.123H289.909V113.657Z" fill="#20C2EF"/>
<path d="M295.605 102.875V64.9858ZM302.561 102.875V64.9858ZM309.587 102.875V64.9858ZM316.617 102.875V64.9858ZM323.646 102.875V64.9858ZM330.6 102.875V64.9858Z" fill="black"/>
<path d="M295.605 102.875V64.9858M302.561 102.875V64.9858M309.587 102.875V64.9858M316.617 102.875V64.9858M323.646 102.875V64.9858M330.6 102.875V64.9858" stroke="#394D54" stroke-width="1.56"/>
<path d="M295.605 155.333V117.444ZM302.561 155.333V117.444ZM309.587 155.333V117.444ZM316.617 155.333V117.444ZM323.646 155.333V117.444ZM330.6 155.333V117.444Z" fill="black"/>
<path d="M295.605 155.333V117.444M302.561 155.333V117.444M309.587 155.333V117.444M316.617 155.333V117.444M323.646 155.333V117.444M330.6 155.333V117.444" stroke="#394D54" stroke-width="1.56"/>
<path d="M343.431 159.12H389.816V113.657H343.431V159.12Z" fill="#00ACD3"/>
<path d="M343.431 106.664H389.816V61.198H343.431V106.664Z" fill="#20C2EF"/>
<path d="M349.126 117.445V155.335ZM356.082 117.445V155.335ZM363.108 117.445V155.335ZM370.138 117.445V155.335ZM377.167 117.445V155.335ZM384.122 117.445V155.335Z" fill="black"/>
<path d="M349.126 117.445V155.335M356.082 117.445V155.335M363.108 117.445V155.335M370.138 117.445V155.335M377.167 117.445V155.335M384.122 117.445V155.335" stroke="#394D54" stroke-width="1.56"/>
<path d="M349.126 64.9871V102.877ZM356.082 64.9871V102.877ZM363.108 64.9871V102.877ZM370.138 64.9871V102.877ZM377.167 64.9871V102.877ZM384.122 64.9871V102.877Z" fill="black"/>
<path d="M349.126 64.9871V102.877M356.082 64.9871V102.877M363.108 64.9871V102.877M370.138 64.9871V102.877M377.167 64.9871V102.877M384.122 64.9871V102.877" stroke="#394D54" stroke-width="1.56"/>
</g>
<mask id="mask1_41_1838" style="mask-type:luminance" maskUnits="userSpaceOnUse" x="82" y="4" width="504" height="320">
<path d="M177.889 4.58725V110.118H126.395V162.884H83.2819C83.0989 164.411 82.9507 165.942 82.8003 167.472C80.1058 196.22 85.2262 222.733 96.9904 245.402L100.94 252.356C103.308 256.524 106.069 260.438 108.986 264.257C111.9 268.071 112.932 270.182 114.765 272.716C145.869 306.981 192.236 323.474 245.767 323.474C364.317 323.474 464.928 271.998 509.455 156.36C541.046 159.537 571.35 151.597 585.16 125.174C563.161 112.731 534.887 116.719 518.598 124.743L561.754 4.58725L393.228 110.118H339.393V4.58725H177.889Z" fill="white"/>
</mask>
<g mask="url(#mask1_41_1838)">
<path d="M518.616 124.754C522.205 97.4188 501.333 75.9466 488.389 65.7523C473.473 82.6551 471.155 126.955 494.556 145.606C481.497 156.976 453.976 167.282 425.798 167.282H79.5819C76.8416 196.113 79.5819 334.945 79.5819 334.945H587.501L585.192 125.205C563.193 112.762 534.905 116.73 518.616 124.754Z" fill="#17B5EB"/>
</g>
<mask id="mask2_41_1838" style="mask-type:luminance" maskUnits="userSpaceOnUse" x="82" y="4" width="504" height="320">
<path d="M177.889 4.58725V110.118H126.395V162.884H83.2819C83.0989 164.411 82.9507 165.942 82.8003 167.472C80.1058 196.22 85.2262 222.733 96.9904 245.402L100.94 252.356C103.308 256.524 106.069 260.438 108.986 264.257C111.9 268.071 112.932 270.182 114.765 272.716C145.869 306.981 192.236 323.474 245.767 323.474C364.317 323.474 464.928 271.998 509.455 156.36C541.046 159.537 571.35 151.597 585.16 125.174C563.161 112.731 534.887 116.719 518.598 124.743L561.754 4.58725L393.228 110.118H339.393V4.58725H177.889Z" fill="white"/>
</mask>
<g mask="url(#mask2_41_1838)">
<path d="M79.5815 204.179V334.945H587.5V204.179" fill="black" fill-opacity="0.17"/>
</g>
<mask id="mask3_41_1838" style="mask-type:luminance" maskUnits="userSpaceOnUse" x="82" y="4" width="504" height="320">
<path d="M177.889 4.58725V110.118H126.395V162.884H83.2819C83.0989 164.411 82.9507 165.942 82.8003 167.472C80.1058 196.22 85.2262 222.733 96.9904 245.402L100.94 252.356C103.308 256.524 106.069 260.438 108.986 264.257C111.9 268.071 112.932 270.182 114.765 272.716C145.869 306.981 192.236 323.474 245.767 323.474C364.317 323.474 464.928 271.998 509.455 156.36C541.046 159.537 571.35 151.597 585.16 125.174C563.161 112.731 534.887 116.719 518.598 124.743L561.754 4.58725L393.228 110.118H339.393V4.58725H177.889Z" fill="white"/>
</mask>
<g mask="url(#mask3_41_1838)">
<path d="M260.366 323.222C228.675 308.482 211.279 288.445 201.601 266.569L105.329 270.709L154.482 334.945L260.366 323.222Z" fill="#D4EDF1"/>
</g>
<mask id="mask4_41_1838" style="mask-type:luminance" maskUnits="userSpaceOnUse" x="82" y="4" width="504" height="320">
<path d="M177.889 4.58725V110.118H126.395V162.884H83.2819C83.0989 164.411 82.9507 165.942 82.8003 167.472C80.1058 196.22 85.2262 222.733 96.9904 245.402L100.94 252.356C103.308 256.524 106.069 260.438 108.986 264.257C111.9 268.071 112.932 270.182 114.765 272.716C145.869 306.981 192.236 323.474 245.767 323.474C364.317 323.474 464.928 271.998 509.455 156.36C541.046 159.537 571.35 151.597 585.16 125.174C563.161 112.731 534.887 116.719 518.598 124.743L561.754 4.58725L393.228 110.118H339.393V4.58725H177.889Z" fill="white"/>
</mask>
<g mask="url(#mask4_41_1838)">
<path d="M520.792 123.74V123.811C471.964 185.499 401.927 239.388 326.738 267.698C259.668 292.951 201.19 293.072 160.846 272.788C156.501 270.383 152.242 267.714 147.972 265.189C118.394 244.927 101.734 211.41 103.134 167.257H79.5815V334.945H587.5V114.707H528.984L520.792 123.74Z" fill="black" fill-opacity="0.085"/>
</g>
<path d="M106.792 268.486C139.947 270.265 175.331 270.584 206.196 261.102" stroke="#394D54" stroke-width="3.4" stroke-linecap="round"/>
<path d="M239.144 245.38C239.144 252.306 233.415 257.921 226.348 257.921C219.281 257.921 213.551 252.306 213.551 245.38C213.551 238.454 219.281 232.836 226.348 232.836C233.415 232.836 239.144 238.454 239.144 245.38Z" fill="#D4EDF1"/>
<path d="M0 206.845H595.289C582.327 203.622 554.279 199.269 558.904 182.619C535.336 209.35 478.497 201.373 464.152 188.191C448.178 210.9 355.185 202.268 348.699 184.578C328.673 207.613 266.619 207.613 246.592 184.578C240.104 202.268 147.112 210.9 131.137 188.191C116.792 201.373 59.958 209.35 36.3872 182.619C41.0129 199.269 12.9644 203.622 0 206.845Z" fill="#394D54"/>
<path d="M229.667 237.003C228.55 237.635 227.794 238.821 227.794 240.178C227.794 242.202 229.469 243.841 231.534 243.841C232.95 243.841 234.179 243.071 234.815 241.933C235.264 242.994 235.513 244.158 235.513 245.38C235.513 250.34 231.41 254.361 226.348 254.361C221.288 254.361 217.182 250.34 217.182 245.38C217.182 240.417 221.288 236.395 226.348 236.395C227.519 236.395 228.636 236.611 229.667 237.003Z" fill="#394D54"/>
<path d="M320.551 394L320.52 376.194M320.52 376.194L320.43 344.385M320.52 376.194L338.924 358.094M320.52 376.194L339.015 394.059M215.728 376.43C215.817 372.612 214.677 368.71 212.368 365.552C209.041 361.002 203.656 357.895 197.748 357.828C197.354 357.828 196.964 357.828 196.568 357.858C194.232 357.998 191.97 358.314 189.969 359.125C176.806 364.459 174.474 382.261 185.58 390.315C195.197 397.29 209.187 394.442 214.033 383.8C215.057 381.551 215.728 378.716 215.728 376.43ZM215.728 376.43V344.238M304.539 359.951C301.814 358.236 298.634 357.617 295.489 357.622C295.147 357.622 294.797 357.639 294.49 357.651C285.396 358.032 276.964 364.291 276.964 376.43C276.964 390.782 292.764 398.528 304.569 391.76M357.601 390.197C366.902 382.438 385.54 366.879 385.54 366.879C385.54 366.879 384.86 365.627 384.42 365.051C380.659 360.135 374.913 357.681 368.861 357.681C353.904 357.681 342.693 376.517 357.601 390.197ZM357.601 390.197C358.633 391.144 360.051 391.886 361.627 392.526C367.098 394.747 374.587 394.565 378.638 391.642M418.5 358.094C413.907 358.106 409.435 359.672 406.12 362.693C400.892 366.894 399.757 372.201 399.824 378.907L399.975 394.148M246.298 357.74C245.874 357.747 245.452 357.791 245.027 357.799C233.685 358.002 225.508 369.475 227.985 380.115C230.399 390.484 242.03 396.624 252.079 393.234C263.781 390.245 268.554 375.894 262.129 366.201C258.615 360.899 252.658 357.622 246.298 357.74Z" stroke="#394D54" stroke-width="8" stroke-linecap="round" stroke-linejoin="round"/>
</svg>
