<svg width="208" height="400" viewBox="0 0 208 400" fill="none" xmlns="http://www.w3.org/2000/svg">
<g clip-path="url(#clip0_52_3938)">
<path d="M104 163.5C104 149.797 109.452 136.656 119.157 126.966C128.862 117.277 142.025 111.833 155.75 111.833C169.475 111.833 182.638 117.277 192.343 126.966C202.048 136.656 207.5 149.797 207.5 163.5C207.5 177.203 202.048 190.344 192.343 200.034C182.638 209.723 169.475 215.167 155.75 215.167C142.025 215.167 128.862 209.723 119.157 200.034C109.452 190.344 104 177.203 104 163.5V163.5Z" fill="#1ABCFE"/>
<path d="M0.5 266.833C0.5 253.13 5.95222 239.989 15.6572 230.299C25.3622 220.61 38.525 215.167 52.25 215.167H104V266.833C104 280.536 98.5478 293.678 88.8428 303.367C79.1378 313.057 65.975 318.5 52.25 318.5C38.525 318.5 25.3622 313.057 15.6572 303.367C5.95222 293.678 0.5 280.536 0.5 266.833H0.5Z" fill="#0ACF83"/>
<path d="M104 8.5V111.833H155.75C169.475 111.833 182.638 106.39 192.343 96.7005C202.048 87.0111 207.5 73.8695 207.5 60.1667C207.5 46.4638 202.048 33.3222 192.343 23.6328C182.638 13.9434 169.475 8.5 155.75 8.5L104 8.5Z" fill="#FF7262"/>
<path d="M0.5 60.1667C0.5 73.8695 5.95222 87.0111 15.6572 96.7005C25.3622 106.39 38.525 111.833 52.25 111.833H104V8.5H52.25C38.525 8.5 25.3622 13.9434 15.6572 23.6328C5.95222 33.3222 0.5 46.4638 0.5 60.1667H0.5Z" fill="#F24E1E"/>
<path d="M0.5 163.5C0.5 177.203 5.95222 190.344 15.6572 200.034C25.3622 209.723 38.525 215.167 52.25 215.167H104V111.833H52.25C38.525 111.833 25.3622 117.277 15.6572 126.966C5.95222 136.656 0.5 149.797 0.5 163.5H0.5Z" fill="#A259FF"/>
</g>
<path d="M1 325.68V382.283L8.33699 382.311V355.358H25.974V348.226H8.30877V332.784H31.3074V325.68H1ZM44.4575 337.192C45.7298 337.192 46.95 336.689 47.8497 335.794C48.7494 334.899 49.2548 333.685 49.2548 332.419C49.2548 331.153 48.7494 329.939 47.8497 329.044C46.95 328.149 45.7298 327.646 44.4575 327.646C43.1852 327.646 41.965 328.149 41.0654 329.044C40.1657 329.939 39.6603 331.153 39.6603 332.419C39.6603 333.685 40.1657 334.899 41.0654 335.794C41.965 336.689 43.1852 337.192 44.4575 337.192V337.192ZM40.7608 344.295V382.311H48.0978V344.295H40.7608V344.295Z" fill="black"/>
<path fill-rule="evenodd" clip-rule="evenodd" d="M75.2163 343.2C65.5089 343.2 58.7363 351.371 58.7363 361.085C58.7363 370.8 65.5089 378.97 75.2163 378.97C79.675 378.97 83.3435 377.286 86.0243 374.478V379.532C86.0429 381.042 85.7606 382.541 85.1935 383.942C84.6264 385.342 83.7859 386.617 82.7206 387.693C81.6552 388.769 80.3861 389.624 78.9866 390.208C77.5872 390.793 76.0851 391.096 74.5673 391.1C72.2251 391.1 69.9111 390.201 68.0769 388.91L64.4084 395.227C67.245 397.051 70.524 398.08 73.8993 398.205C77.2747 398.329 80.6213 397.545 83.5861 395.935C86.5509 394.325 89.024 391.949 90.7444 389.057C92.4649 386.165 93.369 382.864 93.3613 379.504V344.323H86.0243V347.721C83.3435 344.913 79.675 343.228 75.2163 343.228V343.2ZM66.0451 361.085C66.0451 355.049 70.673 350.304 76.0347 350.304C81.3963 350.304 85.9961 355.077 85.9961 361.085C85.9961 367.122 81.3681 371.839 76.0347 371.839C70.673 371.839 66.0451 367.122 66.0451 361.085V361.085Z" fill="black"/>
<path d="M119.718 350.304C117.62 350.341 115.62 351.198 114.152 352.69C112.684 354.182 111.865 356.19 111.873 358.278V382.311H104.536V344.295H111.873V347.777C112.971 346.329 114.397 345.16 116.035 344.365C117.672 343.57 119.476 343.171 121.298 343.2C126.434 343.2 130.385 345.727 132.642 349.602C133.902 347.659 135.626 346.058 137.66 344.941C139.693 343.824 141.974 343.226 144.297 343.2C152.622 343.2 157.842 349.883 157.842 358.165V382.311H150.562V358.25C150.569 356.161 149.751 354.154 148.283 352.662C146.814 351.17 144.815 350.313 142.717 350.276C140.618 350.313 138.619 351.17 137.151 352.662C135.683 354.154 134.864 356.161 134.872 358.25V382.283H127.535V358.25C127.543 356.166 126.728 354.163 125.266 352.672C123.804 351.18 121.811 350.32 119.718 350.276V350.304Z" fill="black"/>
<path fill-rule="evenodd" clip-rule="evenodd" d="M196.869 348.619C195.203 346.891 193.2 345.519 190.983 344.587C188.765 343.655 186.38 343.183 183.973 343.2C173.081 343.2 165.349 352.353 165.349 363.303C165.349 374.253 173.081 383.406 183.973 383.406C186.38 383.419 188.763 382.945 190.98 382.013C193.197 381.082 195.2 379.712 196.869 377.988V382.311H204.178V344.295H196.841V348.619H196.869ZM172.657 363.303C172.657 356.06 178.245 350.304 184.763 350.304C191.254 350.304 196.869 356.06 196.869 363.303C196.869 370.547 191.282 376.275 184.763 376.275C178.273 376.275 172.657 370.547 172.657 363.303V363.303Z" fill="black"/>
<defs>
<clipPath id="clip0_52_3938">
<rect width="207" height="310" fill="white" transform="translate(0.5 8.5)"/>
</clipPath>
</defs>
</svg>
