<svg width="340" height="400" viewBox="0 0 340 400" fill="none" xmlns="http://www.w3.org/2000/svg">
<path d="M333.57 149.885L185.152 6.23495C176.563 -2.07832 162.71 -2.07832 154.213 6.23495L123.366 36.0912L162.432 73.9032C171.853 70.7745 182.197 73.1881 189.216 79.8923C196.235 86.686 198.636 96.7871 195.404 105.905L233.085 142.376C242.229 139.337 252.757 141.303 259.961 148.365C270.12 158.198 270.12 174.199 259.961 184.032C249.802 193.865 233.27 193.865 223.111 184.032C215.63 176.791 213.413 165.975 217.477 156.589L182.382 122.621V212.1C184.968 213.352 187.276 214.961 189.308 216.838C199.468 226.671 199.468 242.672 189.308 252.504C179.149 262.337 162.617 262.337 152.458 252.504C142.299 242.672 142.299 226.671 152.458 216.838C154.859 214.514 157.815 212.637 160.955 211.296V121.012C157.722 119.76 154.859 117.883 152.458 115.47C144.792 108.05 142.853 97.0552 146.824 87.9374L108.311 50.6618L6.44189 149.17C-2.1473 157.483 -2.1473 170.891 6.44189 179.115L154.859 322.765C163.448 331.078 177.302 331.078 185.799 322.765L333.477 179.83C342.159 171.517 342.159 158.109 333.57 149.885Z" fill="#DE4C36"/>
<path d="M144.963 355.867C141.301 355.867 138.569 357.676 138.569 362.019C138.569 365.295 140.371 367.581 144.773 367.581C148.511 367.581 151.035 365.371 151.035 361.886C151.035 357.943 148.758 355.867 144.963 355.867ZM137.62 386.61C136.747 387.676 135.893 388.819 135.893 390.152C135.893 392.819 139.29 393.638 143.958 393.638C147.828 393.638 153.084 393.371 153.084 389.752C153.084 387.6 150.542 387.467 147.354 387.276L137.62 386.61ZM157.372 356.076C158.568 357.619 159.839 359.752 159.839 362.838C159.839 370.267 154.033 374.61 145.646 374.61C143.502 374.61 141.586 374.343 140.371 374L138.151 377.562L144.679 377.962C156.215 378.705 163.008 379.029 163.008 387.943C163.008 395.638 156.272 400 144.679 400C132.611 400 128 396.914 128 391.638C128 388.629 129.328 387.029 131.662 384.8C129.461 383.867 128.721 382.19 128.721 380.381C128.721 378.914 129.461 377.562 130.656 376.305C131.852 375.029 133.18 373.752 134.793 372.286C131.529 370.686 129.063 367.2 129.063 362.248C129.063 354.552 134.129 349.257 144.337 349.257C147.202 349.257 148.948 349.524 150.466 349.924H163.463V355.619L157.372 356.076ZM175.227 343.905C171.433 343.905 169.232 341.695 169.232 337.886C169.232 334.076 171.433 332 175.227 332C179.098 332 181.299 334.076 181.299 337.886C181.299 341.695 179.098 343.905 175.227 343.905ZM166.632 384.133V378.838L170.028 378.381C170.958 378.248 171.091 378.038 171.091 377.048V357.371C171.091 356.629 170.882 356.171 170.218 355.962L166.613 354.686L167.353 349.257H181.166V377.048C181.166 378.114 181.223 378.248 182.229 378.381L185.625 378.857V384.133H166.632ZM212 381.543C209.135 382.952 204.923 384.229 201.128 384.229C193.196 384.229 190.198 381.01 190.198 373.448V355.905C190.198 355.505 190.198 355.238 189.667 355.238H184.999V349.276C190.862 348.61 193.196 345.657 193.936 338.362H200.274V347.867C200.274 348.343 200.274 348.533 200.805 348.533H210.197V355.219H200.255V371.219C200.255 375.162 201.185 376.705 204.79 376.705C206.668 376.705 208.585 376.229 210.197 375.638L212 381.543Z" fill="#2F2707"/>
</svg>
