<svg width="400" height="400" viewBox="0 0 400 400" fill="none" xmlns="http://www.w3.org/2000/svg">
<path d="M84.6875 0H102.656V17.8125H119.219V0H137.188V53.9062H119.219V35.9375H102.813V53.9062H84.6875M160.937 17.9688H145.078V0H194.844V17.9688H178.906V53.9062H160.937M202.734 0H221.563L233.125 18.9844L244.688 0H263.516V53.9062H245.547V27.1875L232.969 46.5625L220.391 27.1875V53.9062H202.734M272.422 0H290.391V36.0938H315.859V53.9062H272.422" fill="black"/>
<path d="M84.0625 367.969L58.2812 78.5938H341.719L315.937 367.812L199.766 400" fill="#E44D26"/>
<path d="M200 375.391V102.344H315.859L293.75 349.219" fill="#F16529"/>
<path d="M110.938 137.734H200V173.203H149.844L153.125 209.531H200V244.922H120.625M122.187 262.734H157.812L160.312 291.094L200 301.719V338.75L127.188 318.438" fill="#EBEBEB"/>
<path d="M288.75 137.734H199.844V173.203H285.469M282.266 209.531H199.844V245H243.594L239.453 291.094L199.844 301.719V338.594L272.5 318.438" fill="white"/>
</svg>
