<svg width="340" height="389" viewBox="0 0 340 389" fill="none" xmlns="http://www.w3.org/2000/svg">
<g clip-path="url(#clip0_43_3882)">
<path d="M152.839 190.616L254.885 245.812L258.828 203.8L230.533 174.75L188.555 168.046L152.839 190.616Z" fill="#EA5504"/>
<path d="M170 3.05176e-05L254.884 245.812L340 163.8L170 3.05176e-05Z" fill="#F08300"/>
<path d="M156.318 130.28L152.839 190.616L283.412 163.8L156.318 130.28Z" fill="#00499F"/>
<path d="M0 163.8L90.9143 251.398L107.613 229.499L104.598 203.353L63.0834 177.208L0 163.8Z" fill="#D9340A"/>
<path d="M160.723 8.93867L0 163.8L104.598 203.353L160.723 8.93867Z" fill="#EA5504"/>
<path d="M104.599 203.353L90.915 251.398L170.001 327.6L244.449 255.868L104.599 203.353Z" fill="#F08300"/>
<path d="M5.69972 387.9H0V332.5L5.69972 328.5V387.9Z" fill="#3E3A39"/>
<path d="M259.047 338.5H253.265V333.1V331.2H259.047V338.5Z" fill="#3E3A39"/>
<path d="M30.9767 345.2C26.4335 345.2 22.7989 347.5 20.2381 352.1V346H14.7036V387.9H20.2381V364C20.2381 356.7 24.1205 351.6 29.5724 351.6C34.9417 351.6 38.1633 356.1 38.1633 363.5V387.9H43.6978V362C43.6978 357 42.5413 352.8 40.311 349.8C38.0807 346.8 34.8591 345.2 30.9767 345.2Z" fill="#3E3A39"/>
<path d="M99.4559 367V367.2C99.4559 376 94.4997 382.6 87.8913 382.6C81.3655 382.6 76.3267 375.8 76.3267 367.1V366.9C76.3267 358.1 81.2829 351.5 87.8087 351.5C94.3344 351.4 99.4559 358.3 99.4559 367ZM87.8913 345.2C83.1002 345.2 78.7222 347.5 75.5006 351.7C72.3616 355.8 70.627 361.2 70.627 367V367.2C70.627 379.4 78.1439 388.9 87.7261 388.9C92.5171 388.9 96.8952 386.6 100.117 382.4C103.256 378.3 105.073 372.8 105.073 367.1V366.9C105.073 354.7 97.556 345.2 87.8913 345.2Z" fill="#3E3A39"/>
<path d="M117.381 355.3V346.1H111.846V388H117.381V371.2C117.381 360 122.254 352.6 129.854 352.6H130.597V345.4H130.267C124.898 345.1 120.189 348.7 117.381 355.3Z" fill="#3E3A39"/>
<path d="M173.387 345.2C168.596 345.2 164.878 347.7 162.07 352.9C159.922 347.9 156.287 345.2 151.662 345.2C146.457 345.2 143.484 348.6 141.584 352V346.1H136.049V388H141.584V364.2C141.584 357 145.218 351.7 150.257 351.7C155.214 351.7 158.187 356.1 158.187 363.5V388H163.722V363.9C163.722 360.2 164.63 357 166.2 354.8C167.687 352.8 169.835 351.6 172.23 351.6C177.352 351.6 180.243 356 180.243 363.5V387.9H185.777V362.1C185.695 351.7 180.986 345.2 173.387 345.2Z" fill="#3E3A39"/>
<path d="M246.574 352.3V346H236.166V331.4L230.632 335.3V346H224.602V352.3H230.632V376.6C230.632 387.1 236.579 388.6 240.131 388.6C242.362 388.6 244.261 388 246.161 386.8L246.327 386.7V380.5L245.831 380.8C244.261 381.8 242.94 382.2 241.288 382.2C237.901 382.2 236.166 380.1 236.166 375.8V352.3H246.574Z" fill="#3E3A39"/>
<path d="M292.502 376.6C289.529 380.6 286.39 382.6 282.838 382.6C276.395 382.6 271.273 375.8 271.273 367.1V366.9C271.273 358.2 276.229 351.5 282.507 351.5C286.885 351.5 289.694 354.4 292.089 357.5L292.337 357.9L295.972 353L295.724 352.7C293.163 349.2 289.281 345.3 282.507 345.3C277.881 345.3 273.586 347.6 270.364 351.8C267.225 355.9 265.491 361.4 265.491 367.1V367.3C265.491 373 267.225 378.5 270.364 382.5C273.586 386.7 277.881 389 282.507 389C289.363 389 293.328 384.7 295.972 380.9L296.22 380.6L292.668 376.3L292.502 376.6Z" fill="#3E3A39"/>
<path d="M215.597 367.8V372.5C215.597 378.6 211.054 383.2 205.107 383.2C199.737 383.2 197.342 379.2 197.342 375.5V375.2C197.342 371.8 198.911 367.8 206.428 367.8H215.597ZM206.759 345.2C201.555 345.2 197.755 346.9 194.864 348.7L194.616 348.9L196.268 354.7L196.598 354.5C199.242 353 202.298 351.5 206.263 351.5C212.211 351.5 215.597 354.8 215.597 362.4H205.933C196.929 362.4 191.725 367.2 191.725 375.5V375.7C191.725 384.4 198.003 388.9 204.198 388.9C209.898 388.9 213.532 385.7 215.597 382.7V388.1H220.884V362.6C220.884 357.3 219.728 352.9 217.497 350C215.102 346.7 211.467 345.2 206.759 345.2Z" fill="#3E3A39"/>
<path d="M59.3927 342.2C59.3927 336.2 60.6317 333.9 64.5967 333.9C66.0836 333.9 67.3227 334.2 69.2226 334.9L69.553 335V328.8L69.4704 328.7C67.8183 327.9 66.2488 327.6 64.0185 327.6C61.0448 327.6 58.484 328.7 56.8319 330.9C54.932 333.3 53.9408 337.1 53.9408 341.7V345.9H47.9106V352.2H53.9408V387.8H59.4753V352.2H69.8834V345.9H59.4753V342.2H59.3927Z" fill="#3E3A39"/>
<path d="M258.965 387.9H253.431V350.5V346.1H258.965V387.9Z" fill="#3E3A39"/>
<path d="M323.562 367.8V372.5C323.562 378.6 319.018 383.2 313.071 383.2C307.702 383.2 305.306 379.2 305.306 375.5V375.2C305.306 371.8 306.876 367.8 314.393 367.8H323.562ZM314.723 345.2C309.519 345.2 305.719 346.9 302.828 348.7L302.58 348.9L304.232 354.7L304.563 354.5C307.206 353 310.262 351.5 314.227 351.5C320.175 351.5 323.562 354.8 323.562 362.4H313.897C304.893 362.4 299.689 367.2 299.689 375.5V375.7C299.689 384.4 305.967 388.9 312.162 388.9C317.862 388.9 321.497 385.7 323.562 382.7V388.1H328.848V362.6C328.848 357.3 327.692 352.9 325.462 350C323.066 346.7 319.431 345.2 314.723 345.2Z" fill="#3E3A39"/>
<path d="M335.374 346.7H336.118C336.283 346.7 336.448 346.7 336.531 346.7C336.613 346.7 336.778 346.8 336.861 346.8C336.944 346.9 337.026 347 337.026 347.1C337.026 347.2 337.109 347.3 337.109 347.5C337.109 347.6 337.109 347.7 337.026 347.8C336.944 347.9 336.944 348 336.861 348C336.778 348.1 336.696 348.1 336.613 348.1C336.531 348.1 336.365 348.2 336.283 348.2H335.457V346.7H335.374ZM336.283 349.2C336.531 349.2 336.778 349.3 336.861 349.4C336.944 349.5 337.026 349.8 337.026 350.1V350.4V350.6C337.026 350.7 337.026 350.8 337.026 350.9C337.026 351 337.026 351.1 337.026 351.2C337.026 351.3 337.026 351.4 337.109 351.4H337.852V351.3C337.852 351.2 337.77 351.1 337.77 350.9C337.77 350.8 337.77 350.6 337.77 350.4V350C337.77 349.9 337.77 349.7 337.77 349.6C337.77 349.5 337.687 349.3 337.687 349.2C337.604 349.1 337.604 349 337.522 348.9C337.439 348.8 337.357 348.7 337.191 348.7C337.439 348.6 337.604 348.4 337.687 348.2C337.77 348 337.852 347.8 337.852 347.5C337.852 347.2 337.852 347 337.77 346.8C337.687 346.6 337.605 346.4 337.439 346.3C337.274 346.2 337.109 346.1 336.944 346C336.696 345.9 336.531 345.9 336.2 345.9H334.713V351.3H335.457V349.2H336.283ZM333.309 347.1C333.474 346.6 333.722 346.2 333.97 345.8C334.218 345.4 334.548 345.2 334.961 344.9C335.374 344.7 335.787 344.6 336.2 344.6C336.613 344.6 337.026 344.7 337.439 344.9C337.852 345.1 338.183 345.4 338.431 345.8C338.678 346.2 338.926 346.6 339.091 347.1C339.257 347.6 339.339 348.1 339.339 348.7C339.339 349.3 339.257 349.8 339.091 350.3C338.926 350.8 338.678 351.2 338.431 351.6C338.183 352 337.852 352.2 337.439 352.5C337.026 352.7 336.613 352.8 336.2 352.8C335.787 352.8 335.374 352.7 334.961 352.5C334.548 352.3 334.218 352 333.97 351.6C333.722 351.2 333.474 350.8 333.309 350.3C333.144 349.8 333.061 349.3 333.061 348.7C333.061 348.2 333.144 347.6 333.309 347.1ZM332.566 350C332.648 350.4 332.813 350.8 332.979 351.2C333.144 351.6 333.309 351.9 333.557 352.2C333.805 352.5 334.053 352.7 334.3 352.9C334.548 353.1 334.879 353.3 335.209 353.4C335.539 353.5 335.87 353.6 336.2 353.6C336.531 353.6 336.861 353.5 337.191 353.4C337.522 353.3 337.77 353.1 338.1 352.9C338.348 352.7 338.596 352.4 338.844 352.2C339.091 351.9 339.257 351.6 339.422 351.2C339.587 350.8 339.67 350.5 339.835 350C339.917 349.6 340 349.2 340 348.7C340 348.2 339.917 347.8 339.835 347.4C339.752 347 339.587 346.6 339.422 346.2C339.257 345.8 339.091 345.5 338.844 345.2C338.596 344.9 338.348 344.7 338.1 344.5C337.852 344.3 337.522 344.1 337.191 344C336.861 343.9 336.531 343.8 336.2 343.8C335.87 343.8 335.539 343.9 335.209 344C334.879 344.1 334.631 344.3 334.3 344.5C334.053 344.7 333.805 345 333.557 345.2C333.309 345.5 333.144 345.8 332.979 346.2C332.813 346.6 332.731 346.9 332.566 347.4C332.483 347.8 332.4 348.2 332.4 348.7C332.4 349.2 332.483 349.6 332.566 350Z" fill="#3E3A39"/>
</g>
<defs>
<clipPath id="clip0_43_3882">
<rect width="340" height="389" fill="white"/>
</clipPath>
</defs>
</svg>
