<svg width="259" height="400" viewBox="0 0 259 400" fill="none" xmlns="http://www.w3.org/2000/svg">
<g clip-path="url(#clip0_40_1738)">
<path d="M252.738 225.905C252.738 292.53 197.031 346.592 128.276 346.592C59.5208 346.592 3.8147 292.53 3.8147 225.905C3.8147 159.278 59.5218 105.216 128.276 105.216C197.032 105.216 252.739 159.278 252.739 225.905" fill="#D33833"/>
<path d="M8.93331 255.79C8.93331 255.79 -0.100002 129.964 122.254 126.346L113.723 112.83L47.376 133.96L28.406 154.614L11.8446 184.691L2.40869 219.718L5.21984 243.132" fill="#EF3D3A"/>
<path d="M43.0594 143.574C21.2794 164.799 7.72838 194.02 7.72838 226.38C7.72838 258.741 21.2794 287.961 43.0594 309.186C64.9407 330.411 94.9529 343.451 128.276 343.451C161.6 343.451 191.611 330.411 213.493 309.187C235.274 287.961 248.824 258.741 248.824 226.38C248.824 194.019 235.274 164.799 213.493 143.574C191.612 122.444 161.6 109.31 128.276 109.31C95.0531 109.31 64.9417 122.349 43.0594 143.574ZM37.5393 314.231C14.3542 291.768 0 260.645 0 226.38C0 192.116 14.3542 160.991 37.5393 138.434C60.7255 115.972 92.8448 101.98 128.277 101.98C163.708 101.98 195.828 115.972 219.014 138.434C242.199 160.896 256.553 192.02 256.553 226.38C256.553 260.644 242.199 291.768 219.014 314.231C195.828 336.788 163.708 350.685 128.276 350.685C92.8448 350.685 60.7255 336.788 37.5393 314.231Z" fill="#231F20"/>
<path d="M180.671 226.57L161.7 229.235L136.105 231.996L119.544 232.377L103.384 231.901L91.038 228.284L80.0969 217.052L71.5654 194.114L69.6585 189.164L58.3168 185.548L51.6911 175.174L46.9741 160.325L52.1938 147.286L64.54 143.193L74.4766 147.667L79.1936 157.566L84.915 156.708L86.8218 154.425L84.915 144.049L84.4133 131.01L87.2234 113.021L87.1233 102.742L95.755 89.6073L110.911 79.2322L137.41 68.4773L166.82 72.5694L192.414 90.083L204.259 108.072L211.886 121.111L213.794 153.472L208.072 181.36L197.633 206.107L187.798 219.337" fill="#F0D6B7"/>
<path d="M164.612 304.332L96.8598 306.997V317.752L102.581 355.539L99.7701 358.68L52.3943 343.356L49.0824 337.931L44.3644 287.105L33.223 256.647L30.8145 249.413L68.7554 224.667L80.5998 220.193L91.0382 232.376L100.072 239.991L110.511 243.131L115.228 244.465L120.949 267.879L125.266 272.828L136.206 269.211L128.578 283.201L169.73 301.667L164.612 304.331" fill="#335061"/>
<path d="M52.1939 147.476L64.5401 143.384L74.4767 147.857L79.1937 157.756L84.9151 156.899L86.3212 151.474L83.5101 141.099L86.3202 116.353L83.9116 102.837L92.4432 93.4145L110.911 79.5181L105.692 72.7603L79.5953 84.9425L68.6552 93.0336L62.5321 105.597L53.0972 117.78L50.2871 132.152L52.1939 147.476Z" fill="#6D6B6D"/>
<path d="M71.6666 105.216C71.6666 105.216 78.7921 88.5598 107.198 80.4696C135.603 72.3794 108.604 74.6634 108.604 74.6634L77.7876 85.895L65.9452 97.1257L60.7255 106.072L71.6666 105.216ZM57.4136 144.335C57.4136 144.335 47.476 112.83 85.4169 108.357L84.0118 102.932L57.9153 108.738L50.2871 132.153L52.1939 147.476L57.4136 144.335Z" fill="#DCD9D8"/>
<path d="M72.5698 186.12L78.7919 180.408C78.7919 180.408 81.6031 180.694 82.1048 183.835C82.6066 186.976 84.0116 215.34 104.388 230.568C106.294 231.996 89.2313 228.284 89.2313 228.284L74.074 205.821M159.793 177.553C159.793 177.553 160.897 163.942 164.812 164.99C168.726 166.036 168.726 169.747 168.726 169.747C168.726 169.747 159.292 175.459 159.793 177.553ZM199.139 127.679C199.139 127.679 191.31 129.202 190.608 135.769C189.905 142.336 199.139 137.102 200.544 136.626M141.827 128.155C141.827 128.155 131.387 129.487 131.387 135.769C131.387 142.05 143.232 141.575 146.544 138.91M77.3869 157.375C77.3869 157.375 59.4214 147 57.5146 156.899C55.6078 166.798 51.3916 173.935 60.3248 184.31L54.2017 182.502L48.4813 168.606L46.5735 155.09L57.5146 144.335L69.8598 145.192L76.9863 150.617L77.3879 157.375M85.9195 129.012C85.9195 129.012 93.9483 89.4164 134.7 81.802C168.224 75.52 185.89 83.1353 192.515 90.3679C192.515 90.3679 162.603 56.6749 134.198 66.954C105.793 77.3291 84.915 96.1742 85.4167 108.262C86.2199 129.011 85.9185 129.011 85.9185 129.011M195.826 94.8418C195.826 94.8418 182.076 94.366 181.573 106.073C181.573 106.073 181.573 107.882 182.478 109.69C182.478 109.69 193.418 97.9823 200.043 104.264" fill="#F7E4CD"/>
<path d="M135.704 110.927C135.704 110.927 133.295 93.0336 117.236 103.408C106.796 110.166 107.8 119.588 109.607 121.397C111.514 123.205 111.012 126.822 112.418 124.348C113.823 121.873 113.421 113.783 118.641 111.498C123.759 109.214 132.392 106.74 135.704 110.927Z" fill="#F7E4CD"/>
<path d="M91.1393 232.377L46.5716 251.221C46.5716 251.221 65.0409 320.893 55.605 342.498L48.9812 340.214L48.4795 313.659L36.1333 263.405L30.9136 249.508L77.386 219.812L91.1373 232.376M95.655 270.923L101.978 278.253V305.188H94.4512C94.4512 305.188 93.5479 286.343 93.5479 284.059C93.5479 281.774 94.4512 273.684 94.4512 273.684M95.8563 309.281L74.4768 310.138L80.5998 314.231L95.7551 316.516" fill="#49728B"/>
<path d="M168.828 304.808L186.392 304.332L190.708 345.64L172.741 347.925L168.827 304.807" fill="#335061"/>
<path d="M173.545 304.808L200.043 303.475C200.043 303.475 210.984 277.396 210.984 276.064C210.984 274.731 220.419 238.278 220.419 238.278L199.039 217.148L194.723 213.531L183.381 224.286V266.071L173.545 304.808Z" fill="#335061"/>
<path d="M185.388 301.667L168.827 304.808L171.236 317.372C177.358 320.037 187.798 312.898 187.798 312.898M185.89 222.954L219.114 246.368L220.017 235.612L194.924 213.626L185.891 222.954" fill="#49728B"/>
<path d="M112.317 393.325L102.481 355.539L97.5627 327.651L96.7595 306.997L141.224 304.713H168.827L166.318 351.922L170.633 388.376L170.132 395.133L134.098 397.799L112.317 393.325Z" fill="white"/>
<path d="M162.704 304.332C162.704 304.332 160.295 351.066 167.422 384.378C167.422 384.378 153.169 392.944 132.391 395.133L172.24 393.801L176.957 391.136L171.236 317.467L169.73 301.667" fill="#DCD9D8"/>
<path d="M191.411 342.119L209.879 337.169L244.91 335.361L250.13 320.037L240.694 293.482L229.753 292.149L214.597 296.623L200.143 303.381L192.414 302.048L186.392 304.332" fill="white"/>
<path d="M191.11 333.077C191.11 333.077 203.456 327.651 205.363 328.127L200.143 303.381L206.266 301.096C206.266 301.096 210.582 324.511 210.582 327.176C210.582 327.176 237.08 328.508 239.489 328.508C239.489 328.508 245.21 318.133 243.805 307.378L249.025 321.75L249.527 329.84L241.898 340.595L233.367 342.404L219.114 341.929L214.396 336.122L197.835 338.406L192.615 340.215" fill="#DCD9D8"/>
<path d="M172.44 301.191L162.001 276.064L151.061 261.215C151.061 261.215 153.47 254.934 156.782 254.934H167.723L178.162 258.55L177.258 275.207L172.44 301.191Z" fill="white"/>
<path d="M174.548 292.625C174.548 292.625 161.299 268.355 161.299 264.737C161.299 264.737 163.708 259.312 167.02 260.645C170.333 261.978 177.46 265.595 177.46 265.595V257.028L161.299 253.887L150.359 255.22L168.827 296.718L172.64 297.194" fill="#DCD9D8"/>
<path d="M116.533 233.328L103.384 231.995L91.0381 228.378V232.472L97.06 238.754L116.031 246.844" fill="white"/>
<path d="M95.3545 234.66C95.3545 234.66 110.008 240.467 114.827 239.134L115.328 244.56L102.079 241.894L94.0496 236.469L95.3545 234.66Z" fill="#DCD9D8"/>
<path d="M191.411 256.457C183.381 256.266 176.053 255.315 169.73 253.602C170.132 251.127 169.328 248.748 170.032 246.939C171.838 245.701 174.748 245.701 177.458 245.416C175.15 244.369 171.838 243.893 169.228 244.56C169.127 242.847 168.325 241.799 167.822 240.467C172.34 238.943 182.98 228.95 189.001 232.186C191.913 233.804 193.118 242.751 193.318 247.225C193.518 250.841 192.916 254.458 191.411 256.457Z" fill="#D33833"/>
<path d="M191.411 256.457C183.381 256.266 176.053 255.315 169.73 253.602C170.132 251.127 169.328 248.748 170.032 246.939C171.838 245.701 174.748 245.701 177.458 245.416C175.15 244.369 171.838 243.893 169.228 244.56C169.127 242.847 168.325 241.799 167.822 240.467C172.34 238.943 182.98 228.95 189.001 232.186C191.913 233.804 193.118 242.751 193.318 247.225C193.518 250.841 192.916 254.458 191.411 256.457Z" fill="black" stroke="#D33833" stroke-width="11.9904"/>
<path d="M152.968 243.988C152.968 244.56 152.968 245.13 152.867 245.701C150.358 247.225 146.343 247.225 143.532 248.557C147.548 248.747 150.76 249.698 153.57 250.936C153.469 252.364 153.469 253.887 153.37 255.315C148.752 258.265 144.537 262.739 139.117 265.594C136.507 266.927 127.574 270.354 124.864 269.687C123.358 269.306 123.157 267.498 122.556 265.785C121.251 262.168 118.239 256.266 117.938 250.746C117.636 243.798 116.834 232.091 124.763 233.518C131.186 234.661 138.614 237.421 143.532 239.991C146.644 241.704 148.351 243.607 152.968 243.988Z" fill="#D33833"/>
<path d="M152.968 243.988C152.968 244.56 152.968 245.13 152.867 245.701C150.358 247.225 146.343 247.225 143.532 248.557C147.548 248.747 150.76 249.698 153.57 250.936C153.469 252.364 153.469 253.887 153.37 255.315C148.752 258.265 144.537 262.739 139.117 265.594C136.507 266.927 127.574 270.354 124.864 269.687C123.358 269.306 123.157 267.498 122.556 265.785C121.251 262.168 118.239 256.266 117.938 250.746C117.636 243.798 116.834 232.091 124.763 233.518C131.186 234.661 138.614 237.421 143.532 239.991C146.644 241.704 148.351 243.607 152.968 243.988Z" fill="black" stroke="#D33833" stroke-width="11.9904"/>
<path d="M157.485 252.269C156.782 248.461 155.979 247.415 156.28 244.083C167.02 237.325 168.928 255.696 157.485 252.269Z" fill="#D33833"/>
<path d="M157.485 252.269C156.782 248.461 155.979 247.415 156.28 244.083C167.02 237.325 168.928 255.696 157.485 252.269Z" fill="black" stroke="#D33833" stroke-width="11.9904"/>
<path d="M172.942 255.315C172.942 255.315 169.63 250.841 172.038 249.508C174.448 248.176 176.756 249.508 178.162 247.225C179.568 244.94 178.162 243.608 178.663 240.943C179.165 238.278 181.473 237.802 183.883 237.326C186.291 236.849 192.916 235.993 193.82 238.183L191.009 230.092L185.288 228.284L167.322 238.183L166.418 243.132V253.031M123.157 270.163C122.556 263.119 121.954 256.171 121.351 249.128C120.347 238.659 123.961 240.466 133.596 240.466C135.102 240.466 142.629 242.085 143.132 243.132C145.742 248.176 138.816 247.034 146.142 250.841C152.265 253.982 163.206 248.938 160.697 241.799C159.291 240.181 153.47 241.323 151.362 240.276L140.221 234.851C135.504 232.566 124.663 229.14 119.644 232.377C106.897 240.562 120.447 261.121 124.964 269.687" fill="#EF3D3A"/>
<path d="M135.704 110.927C122.756 108.072 116.333 116.067 112.418 124.347C108.905 123.586 110.31 119.017 111.214 116.733C113.521 110.737 122.857 102.646 130.484 103.789C133.696 104.169 138.113 107.025 135.704 110.927ZM198.638 124.823H199.24C202.151 130.534 204.66 136.626 208.374 141.766C205.865 147.286 189.705 152.045 189.905 142.336C193.418 140.909 199.441 142.05 202.553 140.147C200.746 135.484 198.236 131.484 198.638 124.823ZM142.229 125.014C145.039 129.868 145.941 134.913 149.856 138.53C151.664 140.147 155.076 142.146 153.37 146.714C152.969 147.762 150.057 150.142 148.351 150.617C142.229 152.331 127.875 150.998 132.693 143.669C137.811 143.86 144.637 146.81 148.452 143.288C145.541 138.91 140.321 130.153 142.229 125.014ZM196.329 173.935C187.095 179.552 176.756 185.739 161.5 184.31C158.288 181.646 156.983 175.648 160.195 171.747C161.801 174.412 160.797 179.362 165.415 180.122C174.047 181.551 184.083 175.078 190.307 172.89C194.12 166.703 190.006 164.514 186.493 160.516C179.366 152.425 169.931 142.336 170.232 130.249C173.143 128.25 173.344 133.295 173.745 134.151C177.459 142.336 186.794 152.901 193.518 159.945C195.225 161.658 197.935 163.371 198.236 164.514C199.14 167.749 195.928 171.745 196.329 173.935ZM74.0742 168.035C71.164 166.417 70.4619 159.564 67.0489 159.373C62.1306 159.088 63.034 168.321 63.034 173.745C59.7221 170.891 59.1192 161.943 61.5288 157.375C58.7186 156.042 57.5128 158.802 55.9075 159.754C58.0156 145.954 77.286 153.377 74.0742 168.035ZM202.151 179.742C197.835 187.547 191.712 196.113 179.065 196.399C178.764 193.924 178.563 190.022 179.065 188.498C188.801 187.547 194.823 182.883 202.151 179.742ZM141.526 184.786C149.555 188.784 164.41 189.26 175.452 188.974C176.054 191.259 176.054 194.114 176.054 196.874C161.902 197.445 145.239 194.114 141.526 184.786ZM140.02 192.211C145.641 205.535 164.812 204.013 180.972 203.632C180.27 205.345 178.764 207.439 176.757 208.105C171.537 210.104 157.284 211.627 150.057 208.01C145.541 205.726 142.529 200.491 140.02 197.445C138.916 196.018 132.894 192.306 140.02 192.211Z" fill="#231F20"/>
<path d="M195.626 265.594C189.102 276.254 182.779 287.2 175.051 296.527C178.262 287.485 179.667 272.257 180.17 260.645C186.995 257.599 192.816 261.31 195.626 265.594Z" fill="#81B0C4"/>
<path d="M230.857 303.857C223.53 305.284 218.411 312.042 211.184 311.566C215.199 306.331 222.024 304.047 230.857 303.857ZM234.069 314.707C228.047 315.278 221.021 316.23 214.999 315.754C217.909 311.566 228.95 313.088 234.069 314.707ZM236.177 324.13C229.452 324.225 221.121 324.13 214.697 323.653C218.511 319.751 231.861 322.226 236.177 324.13Z" fill="#231F20"/>
<path d="M182.98 349.828C183.983 357.823 187.296 365.914 186.894 374.67C183.18 375.812 181.073 376.859 176.053 376.859C175.753 369.435 174.648 358.014 174.95 350.875C177.358 351.065 180.972 349.257 182.98 349.828Z" fill="#DCD9D8"/>
<path d="M172.14 231.806C168.727 233.899 165.916 236.469 162.603 238.754C155.377 239.134 151.462 238.278 146.243 234.376C146.344 234.09 146.845 234.185 146.845 233.804C154.574 237.04 164.41 232.473 172.14 231.806Z" fill="#F0D6B7"/>
<path d="M131.789 281.584C133.897 272.922 142.228 268.355 149.756 263.596C157.484 272.923 162.202 284.916 167.422 296.527C155.075 293.006 142.529 287.39 131.789 281.584Z" fill="#81B0C4"/>
<path d="M174.95 350.97C174.648 358.109 175.652 369.436 176.053 376.954C181.073 376.954 183.18 375.908 186.894 374.765C187.296 366.008 183.983 357.918 182.98 349.923C180.972 349.257 177.358 351.065 174.95 350.97ZM97.4615 310.615C100.774 339.263 105.491 363.248 114.223 388.662C133.596 394.277 156.882 394.753 174.046 389.708C170.935 375.432 172.24 358.014 170.433 342.689C169.027 331.173 169.73 319.656 167.823 307.949C147.046 303.857 117.737 306.997 97.4615 310.615ZM172.741 308.14C172.54 320.418 173.343 332.6 174.348 344.878C179.365 344.213 182.678 343.737 187.296 342.689C185.79 330.887 185.991 317.467 182.879 306.997C179.366 307.093 176.254 306.998 172.741 308.14ZM197.935 306.141C195.526 305.665 192.816 306.141 190.608 306.141C191.711 316.135 194.221 327.176 195.124 337.741C198.638 337.836 200.544 336.217 203.456 335.742C203.656 326.509 202.652 313.755 197.935 306.141ZM236.177 339.263C243.605 337.55 248.222 328.984 246.114 320.132C244.708 314.231 242.3 303 239.589 299.192C237.682 296.432 232.362 292.72 228.047 295.29C221.121 299.478 208.976 300.715 203.957 305.76C206.466 313.755 207.269 324.606 208.273 334.694C216.906 335.171 227.444 332.411 234.672 335.361C229.652 336.884 223.229 336.884 218.912 339.168C222.526 340.786 230.757 340.5 236.177 339.263ZM167.321 296.527C162.102 284.916 157.385 272.923 149.655 263.596C142.127 268.354 133.897 272.923 131.689 281.584C142.529 287.391 155.076 293.006 167.321 296.527ZM180.168 260.645C179.667 272.257 178.262 287.485 175.05 296.527C182.778 287.105 189.103 276.254 195.626 265.594C192.816 261.311 186.994 257.599 180.169 260.644L180.168 260.645ZM165.615 255.791C162.704 255.505 160.195 259.027 156.38 257.504C155.477 258.455 154.674 259.408 153.77 260.359C162.202 270.067 166.117 283.774 172.641 295.1C176.154 284.155 175.753 272.257 176.556 260.359C171.738 260.549 169.028 256.077 165.615 255.791ZM156.28 244.083C155.979 247.414 156.782 248.462 157.484 252.269C168.927 255.696 167.02 237.325 156.28 244.083ZM143.532 240.086C138.614 237.515 131.187 234.755 124.763 233.614C116.834 232.186 117.636 243.893 117.938 250.842C118.239 256.361 121.251 262.167 122.555 265.88C123.157 267.593 123.358 269.401 124.864 269.782C127.574 270.354 136.607 267.022 139.117 265.689C144.537 262.929 148.752 258.456 153.37 255.41C153.47 253.982 153.47 252.459 153.57 251.032C150.76 249.698 147.648 248.843 143.532 248.653C146.243 247.32 150.358 247.32 152.867 245.797C152.867 245.226 152.867 244.655 152.968 244.083C148.35 243.607 146.644 241.704 143.532 240.086ZM96.3579 231.996C92.2428 235.993 107.9 241.323 112.819 241.609C112.819 239.134 114.324 236.755 114.023 234.946C108.101 233.995 100.373 234.661 96.3579 231.996ZM146.946 233.804C146.946 234.185 146.444 234.09 146.344 234.376C151.663 238.278 155.577 239.133 162.704 238.754C165.916 236.565 168.827 233.9 172.24 231.805C164.41 232.472 154.575 237.04 146.946 233.804ZM193.318 247.13C193.117 242.751 191.912 233.709 189.001 232.091C182.98 228.759 172.34 238.849 167.823 240.372C168.325 241.704 169.128 242.751 169.228 244.464C171.939 243.798 175.15 244.274 177.458 245.32C174.748 245.606 171.838 245.606 170.031 246.844C169.429 248.652 170.232 251.032 169.73 253.507C176.053 255.22 183.381 256.076 191.411 256.361C192.916 254.458 193.518 250.841 193.318 247.13ZM89.4317 235.803C88.1267 234.946 79.3949 224.19 78.1901 224.666C62.4319 230.568 47.6771 240.753 34.5278 250.46C47.0743 276.064 52.1938 307.378 53.0971 337.55C67.4513 343.927 80.0969 353.159 99.6698 354.111C97.3614 338.978 95.3544 325.367 94.0495 311.089C89.1312 309.091 82.1049 311.185 77.4881 310.519C77.4881 305.284 84.5134 308.235 85.1153 304.713C85.5179 302.048 81.2005 301.858 82.6066 297.67C86.2199 298.907 88.1267 301.667 91.9414 302.714C95.4545 295.481 91.9414 282.632 92.4431 276.54C92.5443 275.398 93.045 270.258 95.755 271.114C98.1645 271.876 95.6548 284.916 95.8561 290.626C96.0564 295.956 95.1531 301.001 97.4615 304.332C116.332 301.858 135.504 300.334 155.979 299.764C151.462 297.955 146.142 296.242 140.321 293.101C137.109 291.388 127.172 287.866 126.269 285.011C124.763 280.442 130.083 278.063 130.986 274.16C121.451 279.109 119.644 269.402 117.336 262.643C115.328 256.456 114.124 251.793 113.622 248.271C105.291 244.274 96.458 240.562 89.4317 235.803ZM184.986 225.904C198.136 219.908 200.544 248.462 195.325 257.695C196.128 260.454 198.838 261.502 199.943 263.976C192.615 276.445 184.486 288.056 176.957 300.334C182.478 297.003 190.508 299.764 197.031 297.289C199.441 296.432 201.147 291.198 202.954 287.01C207.971 275.588 213.191 261.12 215.5 250.271C216.002 247.796 217.507 242.37 217.106 240.181C216.504 236.184 210.883 233.233 207.971 230.853C202.652 226.284 199.34 222.383 193.718 218.099C191.611 221.241 186.793 223.334 184.986 225.905V225.904ZM59.4204 115.4C53.1973 121.968 54.5022 134.151 55.2052 142.907C66.5469 136.15 81.503 143.479 81.4018 154.9C86.8218 154.804 83.4098 148.523 82.4063 144.43C79.1936 131.201 87.8263 116.923 82.8069 104.836C73.0716 105.597 65.1419 109.308 59.4204 115.4ZM104.186 77.4241C90.0346 81.2313 71.8668 91.0346 66.0452 103.122C70.5619 102.456 73.6734 100.362 78.09 100.076C79.7965 99.9814 82.0047 100.743 83.9115 100.267C87.7252 99.3157 91.038 91.1296 93.9483 88.084C96.7595 85.1334 100.171 83.801 102.481 81.1363C103.986 80.4696 106.193 80.4696 106.295 78.3756C105.693 77.709 104.99 77.2341 104.186 77.4241ZM177.96 81.0404C163.206 73.1411 138.314 67.2399 122.656 74.6634C110.008 80.6596 92.9459 90.5579 87.1233 103.028C92.5432 115.114 85.5179 126.155 85.0152 138.433C84.8149 145.001 88.2279 150.617 88.5283 157.756C86.6215 160.707 81.0002 160.991 77.0865 160.802C75.7816 154.519 73.4732 147.476 66.6471 146.714C57.0119 145.668 49.8854 153.282 49.4838 161.182C48.9821 170.51 57.0119 185.929 68.4538 184.882C72.8703 184.501 73.9749 180.313 78.792 180.313C81.4018 185.263 74.7781 186.785 74.075 190.307C73.8737 191.259 74.5768 194.78 75.0785 196.494C77.1866 204.584 81.8034 215.149 86.3201 221.336C92.1417 229.235 103.484 230.378 115.729 231.139C117.938 226.665 125.967 227.046 131.186 228.189C124.864 225.81 119.042 220.098 114.224 215.054C108.703 209.248 103.083 203.061 102.781 195.447C113.321 209.248 121.953 221.336 141.024 227.428C155.477 231.996 172.34 225.333 183.481 217.909C188.098 214.863 190.808 209.914 194.121 205.535C206.366 188.784 212.087 164.989 210.883 141.861C210.381 132.343 210.381 122.825 206.968 116.448C203.456 109.785 191.511 103.694 184.485 109.785C183.18 103.218 190.306 99.2197 198.637 101.6C192.716 94.2711 186.493 85.6092 177.96 81.0404ZM205.463 296.242C217.006 290.817 238.485 281.679 245.612 296.242C248.323 301.667 251.433 310.709 252.738 316.325C254.645 324.13 250.63 340.691 242.099 343.26C234.571 345.545 225.839 345.45 216.805 343.737C215.701 342.88 214.597 341.452 213.694 339.929C207.27 339.739 201.147 340.215 196.128 342.785C196.63 347.353 193.418 348.02 190.306 348.972C188.098 357.442 194.823 368.483 193.218 376.097C192.113 381.618 184.986 382.474 179.768 383.426C179.566 386.473 179.968 389.042 180.37 391.612C179.166 395.8 173.845 398.179 168.727 398.751C151.965 400.654 126.57 401.51 110.511 395.99C105.993 385.521 102.481 372.862 98.7664 360.965C83.1084 362.582 70.3616 354.587 58.417 349.257C54.3019 347.449 48.5805 346.402 46.9741 343.261C45.4689 340.215 46.0708 334.409 45.6692 328.984C44.7659 314.992 43.8625 301.477 40.0489 287.2C38.3424 280.728 35.2308 275.112 33.1227 268.926C31.1157 263.215 27.7027 256.076 26.7994 250.365C25.4945 241.895 33.9259 241.418 39.2457 237.706C47.577 231.996 54.1006 228.854 63.1339 223.715C65.8449 222.192 73.8737 218.385 74.7771 216.576C76.5847 213.056 71.6665 208.106 70.3616 205.345C68.2535 200.967 67.1488 197.255 66.8484 192.971C59.3203 191.83 53.4987 187.547 50.0867 182.788C44.3643 174.793 40.3493 160.04 45.3687 148.904C45.7703 148.048 47.6771 146.238 47.9786 144.906C48.5805 142.241 46.874 138.719 46.7738 135.864C46.2721 121.301 49.3837 108.737 59.7219 104.359C63.9371 88.4648 78.9923 83.2303 93.1461 75.3301C98.466 72.3795 104.288 70.4763 110.309 68.3814C131.889 60.8629 165.113 62.2902 183.08 75.1392C190.708 80.5646 202.853 92.0811 207.169 100.457C218.711 122.444 217.809 159.278 209.779 186.12C208.674 189.736 207.169 194.97 204.961 199.349C203.456 202.395 198.738 208.391 199.239 211.056C199.842 213.816 210.08 221.145 212.289 223.144C216.203 226.76 223.731 231.52 224.332 236.089C225.035 240.943 222.125 247.605 220.62 252.269C215.801 267.879 210.984 282.251 205.463 296.242Z" fill="#231F20"/>
<path d="M128.679 188.118C129.28 187.356 132.692 186.12 137.511 188.308C137.511 188.308 131.789 189.165 132.291 198.208L129.882 197.731C129.983 197.827 127.474 189.641 128.679 188.118Z" fill="#F7E4CD"/>
<path d="M170.232 265.404C170.232 266.736 169.028 267.879 167.622 267.879C166.217 267.879 165.012 266.736 165.012 265.404C165.012 264.071 166.217 262.929 167.622 262.929C169.128 262.929 170.232 264.071 170.232 265.404ZM172.842 276.92C172.842 278.254 171.638 279.395 170.232 279.395C168.827 279.395 167.622 278.254 167.622 276.92C167.622 275.587 168.827 274.446 170.232 274.446C171.738 274.446 172.842 275.493 172.842 276.92Z" fill="#1D1919"/>
<path d="M37.3901 6.28202C36.5869 6.37795 35.8848 6.47196 35.2819 6.56788C34.6801 6.66284 34.0782 6.75781 33.275 6.9487C32.3717 7.13863 31.8689 7.51944 31.6686 8.09019C31.4683 8.66189 31.267 9.23166 31.267 9.99425V33.2173C31.2668 35.2592 30.7868 37.2754 29.862 39.1194C28.9586 40.9276 27.7539 42.3549 26.1485 43.5923C24.5421 44.7338 22.7355 45.6864 20.7285 46.2571C18.7205 46.8288 16.6124 47.2096 14.4042 47.2096C10.4894 47.2096 7.37884 46.353 4.96928 44.5439C2.56074 42.7357 1.35596 40.3559 1.35596 37.2153C1.35596 35.4072 1.8577 33.8839 2.96233 32.6465C4.06595 31.4091 5.57218 30.8384 7.47898 30.8384C9.28564 30.8384 10.6907 31.3141 11.7953 32.3616C12.899 33.4082 13.4007 34.6456 13.4007 36.0739C13.4007 37.3113 12.899 38.5487 11.9956 39.5943C11.0923 40.6417 9.98868 41.6892 8.78391 42.5458V42.9266C8.9842 43.3065 9.38579 43.6873 9.98767 43.9731C10.5906 44.259 11.2926 44.354 11.8955 44.354C14.4042 44.354 16.4121 43.4974 17.8172 41.7832C19.2233 40.071 19.9253 37.5012 19.9253 34.0748V10.2791C19.9253 9.61343 19.8242 8.94679 19.6239 8.47101C19.4236 7.99523 18.8207 7.6144 17.9174 7.23359C17.3155 6.9487 16.5123 6.75781 15.609 6.56788C14.7056 6.37699 14.0036 6.28203 13.4007 6.18706V3.90218H37.0886V6.28202H37.3901ZM74.5278 39.0245C73.8258 40.166 72.9224 41.2125 71.9179 42.2599C70.9145 43.3065 69.7097 44.0681 68.4048 44.8297C66.9997 45.5914 65.5946 46.1631 64.1895 46.5429C62.7835 46.9237 61.078 47.1137 59.2713 47.1137C56.1597 47.1137 53.5499 46.7338 51.2415 45.8763C49.0332 45.0197 47.1264 43.9731 45.7213 42.5458C44.2151 41.1175 43.2116 39.4993 42.4084 37.5962C41.6767 35.6072 41.3036 33.5156 41.3048 31.4091C41.3048 29.411 41.7064 27.412 42.5086 25.6039C43.3118 23.7947 44.4164 22.0815 45.8215 20.6542C47.2266 19.2269 49.0332 18.0835 51.2415 17.2278C53.5351 16.3391 55.9904 15.8861 58.4681 15.8945C61.3794 15.8945 63.789 16.2763 65.6948 16.942C67.6026 17.6086 69.1078 18.5602 70.3126 19.7026C71.5163 20.8441 72.3195 22.1775 72.9224 23.6998C73.4242 25.223 73.7246 26.8412 73.7246 28.5535V30.4576H52.5464C52.5464 34.5506 53.3496 37.5962 55.0551 39.6902C56.6614 41.7842 59.3714 42.8307 62.8846 42.8307C64.8926 42.8307 66.5981 42.3549 68.2045 41.3084C69.8081 40.2791 71.1741 38.9511 72.2194 37.4053L74.5278 39.0235V39.0245ZM62.5842 27.6969C62.5842 26.5545 62.484 25.317 62.3839 24.0796C62.2827 22.8422 62.0824 21.7957 61.6809 21.0341C61.2793 20.0825 60.8787 19.4158 60.1756 18.94C59.5738 18.4643 58.7696 18.2734 57.8672 18.2734C56.2609 18.2734 54.9559 19.035 54.0536 20.5583C53.0491 22.0806 52.5464 24.5554 52.4473 27.8868L62.5842 27.6969ZM118.792 46.0672H99.9222V43.8782C100.324 43.8782 100.826 43.7823 101.328 43.6873C101.93 43.5923 102.331 43.4974 102.633 43.4024C103.034 43.2115 103.335 42.8307 103.536 42.4499C103.737 42.0691 103.837 41.4034 103.837 40.6417V26.7463C103.837 24.7482 103.435 23.2249 102.633 22.1784C101.829 21.1309 100.725 20.6552 99.119 20.6552C98.3158 20.6552 97.5137 20.7511 96.8106 21.036C96.1076 21.2259 95.4045 21.6067 94.7025 22.0825C94.1006 22.4633 93.5989 22.8441 93.1973 23.3199C92.7957 23.7007 92.4943 24.0815 92.294 24.4614V40.3569C92.294 41.0235 92.3951 41.5942 92.5954 42.07C92.7957 42.5468 93.1973 42.9276 93.5989 43.1175C93.9003 43.3074 94.3009 43.4983 94.8027 43.5933L96.3089 43.8792V46.0681H77.2378V43.8792C77.7395 43.8792 78.2413 43.7832 78.8441 43.6883C79.3459 43.5933 79.8476 43.4983 80.2492 43.4034C80.9523 43.2125 81.3528 42.8317 81.6553 42.3559C81.8556 41.8801 82.0559 41.3093 82.0559 40.5477V23.2249C82.0559 22.6542 81.8556 21.9875 81.5541 21.4168C81.2527 20.8451 80.751 20.3693 80.2492 19.9885C79.8476 19.7986 79.446 19.5127 78.8431 19.4178C78.229 19.223 77.5849 19.1264 76.9373 19.1319V16.9429L91.8924 16.1813L92.3941 16.6571V20.941H92.4953C93.2272 20.3697 93.9304 19.766 94.6024 19.1319C95.3416 18.5252 96.112 17.9534 96.9108 17.4187C97.7139 16.9429 98.7174 16.5621 99.9222 16.1813C101.126 15.8005 102.532 15.7055 103.937 15.7055C107.35 15.7055 109.859 16.6571 111.565 18.4662C113.272 20.2743 114.074 22.7492 114.074 25.7947V40.3569C114.074 41.1185 114.175 41.6902 114.375 42.07C114.577 42.5468 115.079 42.8317 115.68 43.1175C115.982 43.2134 116.383 43.4034 116.885 43.4983C117.387 43.5943 117.889 43.6883 118.592 43.7842V46.0672H118.792ZM161.953 46.0672H147.198C145.642 43.4306 143.968 40.8585 142.179 38.3578C140.673 36.2638 139.268 34.2647 137.963 32.5516L136.157 34.0748V40.5468C136.157 41.2125 136.258 41.8791 136.458 42.2599C136.658 42.7357 137.06 43.0216 137.763 43.3065C138.165 43.4974 138.566 43.5923 139.068 43.6873C139.57 43.7832 140.071 43.8782 140.573 43.8782V46.0672H121.1V43.8782C121.603 43.8782 122.105 43.7823 122.707 43.6873C123.209 43.5923 123.71 43.4974 124.113 43.4024C124.815 43.2115 125.215 42.8307 125.517 42.3549C125.718 41.8791 125.918 41.3084 125.918 40.5468V7.42448C125.918 6.75781 125.718 6.09113 125.417 5.42543C125.115 4.75876 124.715 4.18803 124.112 3.80722C123.71 3.61729 123.108 3.33144 122.305 3.23647C121.502 3.04559 120.8 2.95062 120.097 2.95062V0.761637L135.655 0L136.157 0.475781V31.1233C137.663 29.7909 139.469 28.2686 141.376 26.5554C143.283 24.8422 144.889 23.4139 145.993 22.2724C146.696 21.6058 147.098 21.13 147.098 20.7492C147.198 20.3684 147.198 20.1784 147.198 20.0835C147.198 19.7026 146.896 19.4168 146.194 19.2269C145.491 19.036 144.588 18.7501 143.183 18.5602V16.4662H159.041V18.5602C156.934 19.1309 155.329 19.6067 154.224 20.0835C153.12 20.5592 151.915 21.225 150.611 21.9866C149.757 22.535 148.92 23.1062 148.101 23.6998C147.298 24.2705 146.395 25.0331 145.291 25.8887C147.298 28.7444 149.206 31.3142 150.911 33.694C152.618 36.0729 154.425 38.6436 156.331 41.3084C156.934 42.2599 157.737 42.8307 158.741 43.2115C159.744 43.4974 160.648 43.6873 161.651 43.7832V46.0662H161.953V46.0672ZM182.027 46.0672H162.254V43.8782C162.756 43.8782 163.358 43.7823 163.859 43.6873C164.361 43.5923 164.863 43.4974 165.164 43.4024C165.867 43.2115 166.269 42.8307 166.57 42.3549C166.871 41.8791 166.971 41.3084 166.971 40.5468V23.224C166.971 22.5573 166.771 21.8907 166.469 21.4158C166.206 20.8993 165.787 20.4686 165.265 20.1784C164.863 19.9875 164.361 19.7026 163.559 19.5118C162.756 19.3218 162.053 19.1309 161.451 19.1309V16.942L176.807 16.1803L177.309 16.6561V40.2619C177.309 40.9286 177.511 41.4993 177.811 42.07C178.112 42.5468 178.614 42.9276 179.116 43.1175C179.517 43.3074 180.019 43.4983 180.522 43.5933C181.024 43.6892 181.525 43.7842 182.127 43.8792V46.0681H182.026L182.027 46.0672ZM177.511 5.61632C177.511 7.13862 176.908 8.37602 175.704 9.42254C174.499 10.47 172.993 11.0408 171.387 11.0408C169.681 11.0408 168.276 10.47 166.971 9.42254C165.767 8.37602 165.164 7.04365 165.164 5.61535C165.164 4.09305 165.766 2.85565 166.971 1.7132C168.175 0.666677 169.682 0.0949631 171.387 0.0949631C173.094 0.0949631 174.499 0.666677 175.704 1.7132C176.908 2.76068 177.511 4.09209 177.511 5.61535V5.61632ZM226.291 46.0672H207.422V43.8782C207.823 43.8782 208.325 43.7823 208.827 43.6873C209.429 43.5923 209.83 43.4974 210.132 43.4024C210.533 43.2115 210.834 42.8307 211.035 42.4499C211.235 42.0691 211.336 41.4034 211.336 40.6417V26.7463C211.336 24.7482 210.935 23.2249 210.132 22.1784C209.328 21.1309 208.225 20.6552 206.618 20.6552C205.815 20.6552 205.012 20.7511 204.31 21.036C203.607 21.3209 202.904 21.6067 202.202 22.0825C201.6 22.4633 201.098 22.8441 200.697 23.3199C200.295 23.7007 199.994 24.0815 199.793 24.4614V40.3569C199.793 41.0235 199.894 41.5942 200.094 42.07C200.295 42.5468 200.697 42.9276 201.098 43.1175C201.399 43.3074 201.8 43.4983 202.302 43.5933L203.808 43.8792V46.0681H184.737V43.8792C185.239 43.8792 185.741 43.7832 186.344 43.6883C186.845 43.5933 187.347 43.4983 187.749 43.4034C188.451 43.2125 188.852 42.8317 189.154 42.3559C189.354 41.8801 189.555 41.3093 189.555 40.5477V23.2249C189.555 22.6542 189.354 21.9875 189.054 21.4168C188.752 20.8451 188.25 20.3693 187.749 19.9885C187.347 19.7986 186.945 19.5127 186.343 19.4178C185.728 19.2229 185.084 19.1263 184.436 19.1319V16.9429L199.392 16.1813L199.894 16.6571V20.941H199.995C200.727 20.3697 201.43 19.766 202.102 19.1319C202.841 18.5252 203.611 17.9534 204.41 17.4187C205.213 16.9429 206.217 16.5621 207.422 16.1813C208.625 15.8005 210.031 15.7055 211.437 15.7055C214.849 15.7055 217.358 16.6571 219.064 18.4662C220.771 20.2743 221.573 22.7492 221.573 25.7947V40.3569C221.573 41.1185 221.675 41.6902 221.875 42.07C222.076 42.5468 222.578 42.8317 223.18 43.1175C223.481 43.2134 223.883 43.4034 224.384 43.4983C224.886 43.5943 225.388 43.6883 226.091 43.7842V46.0672H226.291ZM243.655 47.1137C241.648 47.1137 239.641 46.8288 237.734 46.2571C235.826 45.6864 234.321 45.1156 233.218 44.4489L232.314 46.448H229.905L229.503 35.4072H231.812C232.113 36.2638 232.615 37.3103 233.418 38.4528C234.121 39.5942 235.024 40.5468 235.927 41.4983C236.963 42.3881 238.109 43.1553 239.34 43.7832C240.645 44.354 241.949 44.7348 243.356 44.7348C245.262 44.7348 246.667 44.354 247.571 43.6873C248.474 43.0216 248.976 41.8792 248.976 40.4518C248.976 39.6902 248.775 39.0235 248.373 38.4528C247.972 37.977 247.369 37.5012 246.667 37.1194C245.864 36.7396 244.961 36.3588 243.956 36.0739C242.953 35.788 241.749 35.5022 240.344 35.0264C238.938 34.6456 237.734 34.2648 236.73 33.789C235.726 33.4082 234.623 32.7415 233.618 31.8849C232.715 31.1242 231.913 30.1717 231.411 29.1252C230.808 28.0777 230.608 26.7463 230.608 25.223C230.608 22.4624 231.812 20.1775 234.321 18.4652C236.83 16.752 240.043 15.8945 244.058 15.8945C245.964 15.8945 247.671 16.0863 249.277 16.4662C250.883 16.847 252.188 17.2278 253.292 17.7036L253.994 15.9904H256.403L256.906 26.0796H254.697C253.994 23.9856 252.689 22.2715 250.983 20.7492C249.176 19.2269 247.269 18.4652 245.262 18.4652C243.656 18.4652 242.351 18.7501 241.448 19.4168C240.544 20.0835 240.042 20.9401 240.042 22.0816C240.042 23.6048 240.745 24.6523 242.05 25.318C243.355 25.9847 245.262 26.6513 247.671 27.2211C251.384 28.1736 254.094 29.411 255.901 30.9333C257.608 32.5516 258.511 34.5497 258.511 36.9295C258.511 40.166 257.206 42.7357 254.496 44.4499C251.485 46.1621 247.97 47.1137 243.655 47.1137Z" fill="#231F20"/>
</g>
<defs>
<clipPath id="clip0_40_1738">
<rect width="259" height="400" fill="white"/>
</clipPath>
</defs>
</svg>
