<svg width="366" height="397" viewBox="0 0 366 397" fill="none" xmlns="http://www.w3.org/2000/svg">
<path d="M99.6516 179.464C99.0505 180.396 98.1699 181.115 97.136 181.516C96.102 181.918 94.9675 181.982 93.8948 181.7C92.5506 181.125 91.0845 180.894 89.6287 181.028C88.173 181.162 86.7736 181.657 85.557 182.467C82.6211 184.559 79.4452 182.976 80.0017 179.157C80.1186 177.269 80.6879 175.438 81.6614 173.816C82.635 172.195 83.9842 170.831 85.5954 169.841C93.5877 165.245 88.0324 162.05 92.4172 157.435C96.8019 152.82 95.8425 151.4 95.689 145.125C89.2564 144.627 83.0085 142.739 77.3765 139.592C71.7444 136.444 66.8624 132.113 63.0672 126.895C54.3746 116.832 49.426 104.074 49.059 90.7809C47.3159 78.2762 49.4913 65.5386 55.2859 54.3213C60.4275 43.6401 69.1297 35.0839 79.8962 30.1236C90.2311 24.8158 101.763 22.2708 113.372 22.7357C121.427 22.1694 129.493 23.6618 136.812 27.0725C141.284 30.4545 146.301 33.0502 151.645 34.7482C154.321 34.908 156.97 34.1424 159.148 32.5798C159.599 43.9878 149.333 44.9761 140.151 45.2159C130.968 45.4558 125.317 41.6563 116.864 43.0667C111.076 43.6339 105.48 45.4492 100.461 48.3877C95.4422 51.3261 91.1201 55.3178 87.7926 60.0876C82.4693 67.5638 80.1758 76.7789 81.3738 85.878C81.5458 89.8518 82.9785 93.6677 85.4642 96.7727C87.95 99.8778 91.3598 102.111 95.1996 103.148C99.997 103.225 101.052 101.844 105.245 99.1091C109.438 96.3746 130.815 69.9126 138.116 63.9639C144.353 58.7426 152.263 55.9457 160.395 56.0867C165.888 55.5622 171.422 56.5093 176.428 58.8307C181.752 61.8153 186.837 65.2092 191.635 68.9819C193.915 67.2517 196.105 65.4072 198.198 63.4554C201.257 60.6478 204.911 58.5694 208.888 57.3763C212.864 56.1832 217.059 55.9063 221.158 56.5664C227.574 57.4587 233.617 60.1161 238.611 64.2421C245.886 71.2631 252.363 79.0661 257.925 87.5091C261.485 93.7823 266.925 98.7794 273.478 101.796C280.875 104.069 286.45 94.4844 287.265 89.169C287.865 86.2126 288.225 83.2125 288.34 80.198C288.374 76.5593 287.938 72.9314 287.045 69.404C286.051 65.9671 284.581 62.6859 282.679 59.6559C279.604 54.6662 275.312 50.5393 270.206 47.6626C266.034 45.5531 261.523 44.1986 256.879 43.6616C252.371 44.0692 247.888 44.7097 243.446 45.5805C237.843 45.9643 227.826 47.2212 223.432 42.894C222.303 41.848 221.399 40.5828 220.775 39.1756C220.152 37.7684 219.822 36.2489 219.805 34.7098C221.098 35.7391 222.661 36.3722 224.305 36.5328C227.817 36.8302 231.098 33.9614 233.9 32.3016C236.68 30.4136 239.591 28.727 242.612 27.2548C250.954 24.4975 259.827 23.7351 268.517 25.0288C275.922 26.0247 283.079 28.3832 289.625 31.9849C295.684 35.7093 300.999 40.5239 305.303 46.185C310.214 52.1205 313.617 59.1547 315.224 66.6888C317.944 78.8361 317.999 91.4285 315.387 103.599C311.959 113.714 306.344 122.948 298.942 130.647C292.763 136.342 285.02 140.058 276.711 141.316C276.907 142.89 277.183 144.452 277.536 145.998C278.15 147.975 279.34 150.181 281.767 149.481C282.229 149.251 282.756 149.185 283.26 149.295C283.765 149.405 284.216 149.684 284.54 150.085C285.816 151.198 285.154 155.526 281.556 157.464C279.472 158.427 277.181 158.859 274.888 158.721C271.331 158.857 267.768 158.693 264.238 158.231C261.072 157.675 259.172 155.161 255.66 154.768C250.511 153.438 245.741 150.929 241.729 147.437C240.612 146.769 239.452 146.176 238.256 145.662C238.822 147.389 239.58 149.193 239.954 150.853C240.328 152.513 240.175 154.058 240.367 155.382C240.558 156.706 240.933 157.752 241.153 158.826C242.017 159.603 242.295 160.745 243.763 161.158C245.52 161.303 247.289 161.164 249.002 160.745C250.499 160.544 251.496 159.728 252.677 159.949C253.893 160.304 255.01 160.938 255.939 161.8C256.898 162.587 257.771 162.702 258.568 164.679C259.509 167.468 260.061 170.374 260.208 173.314C260.373 175.768 260.047 178.231 259.249 180.558C258.514 182.583 257.252 184.375 255.593 185.749C252.799 188.518 249.725 190.991 246.421 193.127C246.954 194.154 247.597 195.119 248.34 196.005C249.299 197.051 251.448 198.203 252.379 199.306C253.239 200.118 253.749 201.233 253.799 202.415C253.924 203.877 253.555 205.34 252.753 206.569C250.363 209.247 247.236 211.159 243.763 212.067C244.57 215.401 244.645 218.871 243.984 222.237C243.629 223.763 242.842 227.217 240.961 228.109C238.395 228.663 235.777 228.939 233.151 228.934C230.858 229.299 229.573 229.644 227.778 229.999C226.55 231.471 225.459 233.051 224.516 234.72C224.274 235.249 224.154 235.826 224.168 236.408C224.181 236.989 224.326 237.561 224.593 238.078C225.063 239.517 226.646 241.609 227.097 243.297C227.571 244.99 227.61 246.776 227.212 248.488C226.794 250.177 225.898 251.709 224.631 252.902C223.192 254.408 220.352 255.588 218.942 256.797C217.531 258.006 216.121 258.159 216.505 260.174C217.824 263.817 220.513 266.801 223.998 268.493C226.064 269.101 228.281 268.937 230.235 268.032C230.091 270.393 228.047 271.985 226.713 273.559C230.359 272.571 233.672 270.622 236.308 267.917C234.698 271.521 232.219 274.669 229.093 277.08C227.343 278.596 225.409 279.886 223.336 280.918C226.474 281.514 229.697 281.514 232.835 280.918C230.623 282.166 228.182 282.956 225.658 283.24C222.925 283.569 220.155 283.36 217.503 282.626C214.302 281.192 211.246 279.454 208.378 277.435C208.596 279.036 209.326 280.524 210.46 281.676C212.36 282.999 214.42 284.075 216.591 284.881C213.494 284.669 210.41 284.297 207.351 283.768C205.504 283.4 203.714 282.79 202.026 281.954C200.518 281.075 199.078 280.084 197.718 278.989C198.162 280.418 198.861 281.754 199.781 282.933C201.208 283.881 202.757 284.63 204.387 285.159C202.789 285.315 201.179 285.279 199.589 285.053C197.792 284.617 196.104 283.817 194.629 282.703C192.83 281.382 191.159 279.895 189.64 278.26C188.099 276.75 186.804 275.009 185.802 273.098C185.245 271.621 186.138 270.585 186.301 269.328C185.185 269.837 184.156 270.517 183.25 271.342C182.775 271.789 182.422 272.35 182.224 272.971C182.026 273.592 181.989 274.253 182.118 274.893C182.863 276.905 183.88 278.806 185.14 280.544C181.839 277.848 179.997 276.811 179.21 273.549C179.081 272.091 179.246 270.621 179.694 269.227C180.142 267.833 180.865 266.542 181.82 265.432C182.54 264.29 183.614 263.225 184.286 262.122C182.695 260.77 181.201 259.308 179.815 257.747C178.539 256.087 178.001 253.832 176.697 252.249C175.291 250.809 173.756 249.502 172.11 248.344C173.681 251.111 175.028 253.999 176.14 256.979C176.291 257.828 176.25 258.699 176.019 259.53C175.788 260.36 175.374 261.128 174.806 261.777C174.01 262.986 172.734 263.254 171.515 263.993C170.297 264.732 168.416 264.156 167.678 265.25C167.299 265.811 167.079 266.463 167.04 267.138C167.001 267.814 167.145 268.487 167.457 269.088L170.335 273.559C168.939 272.735 167.702 271.67 166.68 270.412C165.874 269.318 164.626 268.32 164.454 266.852C164.289 266.165 164.266 265.452 164.386 264.755C164.507 264.059 164.768 263.395 165.154 262.803C166.114 261.489 168.714 261.057 169.884 260.05C171.055 259.042 171.707 258.39 171.64 257.085C171.573 255.78 170.297 254.859 169.213 254.034C165.525 251.718 162.033 249.102 158.774 246.214C157.543 245.039 156.62 243.58 156.087 241.964C155.965 241.351 155.974 240.719 156.115 240.11C156.256 239.502 156.524 238.93 156.903 238.433C157.699 236.984 160.424 235.056 160.741 233.492C161.057 231.928 159.695 231.573 158.457 231.035C157.219 230.498 154.85 231.314 153.66 230.354C152.47 229.395 153.996 227.37 152.7 226.257C151.405 225.144 148.431 225.768 146.944 224.569C145.585 223.437 144.637 221.889 144.247 220.165C143.739 218.586 143.659 216.9 144.017 215.281C144.382 214.024 145.456 213.803 146.099 213.151C146.742 212.499 147.318 211.961 146.445 210.992C145.572 210.023 142.751 211.05 141.12 209.802C139.489 208.555 140.486 205.581 139.335 204.314C138.184 203.048 136.111 203.556 135.027 203.153C133.943 202.75 133.501 204.17 132.839 201.925C132.177 199.68 132.149 193.002 131.247 190.517C130.345 188.032 128.579 190.345 127.764 187.869C127.372 184.494 127.234 181.094 127.351 177.699L125.672 167.519C119.829 171.443 101.398 176.49 99.7667 179.349" fill="white"/>
<path d="M188.977 79.7183C188.84 82.7501 189.088 85.7872 189.716 88.7564C189.832 90.0144 190.22 91.2322 190.853 92.3256C191.486 93.419 192.348 94.3618 193.381 95.0889C197.814 98.3798 200.654 97.833 204.07 99.7423C205.878 100.616 207.372 102.027 208.349 103.782C208.579 104.541 208.543 105.357 208.247 106.093C207.95 106.83 207.411 107.443 206.718 107.831C207.295 107.88 207.875 107.783 208.405 107.551C208.935 107.318 209.398 106.956 209.752 106.498C210.106 106.039 210.34 105.5 210.432 104.928C210.524 104.357 210.471 103.771 210.278 103.225C209.779 101.997 207.399 101.45 206.699 100.212C206.376 99.6454 206.174 99.017 206.108 98.3677C206.042 97.7183 206.113 97.0623 206.315 96.4417C206.929 94.1774 211.41 92.1146 213.031 90.33C214.25 89.2982 215.103 87.8999 215.463 86.3438C215.823 84.7876 215.67 83.1569 215.027 81.6948C211.742 76.5944 206.845 72.7404 201.115 70.7473C199.557 70.1381 197.953 69.6567 196.317 69.3081C199.982 70.7546 202.975 73.5153 204.713 77.051C206.094 80.6394 204.895 81.9922 204.943 85.1105C204.943 86.5593 206.862 87.2789 207.716 88.1999C208.57 89.121 208.387 89.5912 207.802 90.6849C207.785 90.2364 207.664 89.798 207.447 89.4049C207.23 89.0117 206.925 88.6747 206.555 88.4206C205.308 87.5283 203.955 87.7202 203.283 85.8972C202.266 83.1244 204.243 80.4954 202.017 77.3772C201.306 76.071 200.31 74.9421 199.102 74.0749C197.894 73.2077 196.506 72.6245 195.041 72.3688C193.662 72.3481 192.29 72.5623 190.983 73.002L188.882 70.5266C185.215 66.5861 180.857 63.3504 176.025 60.9799C171.245 58.6274 165.912 57.6317 160.606 58.1015C152.871 57.6941 145.287 60.352 139.498 65.499C131.745 72.2153 111.75 97.8042 106.876 100.999C105.274 102.49 103.388 103.643 101.331 104.39C99.2738 105.136 97.0874 105.461 94.902 105.346C90.4993 104.356 86.5496 101.933 83.6723 98.4565C80.7951 94.9802 79.153 90.6472 79.0037 86.1371C77.7801 76.4536 80.2539 66.6648 85.931 58.7252C89.3121 53.4884 93.8693 49.1133 99.2395 45.9484C104.61 42.7836 110.645 40.9163 116.864 40.4954C124.726 40.4309 132.573 41.1703 140.285 42.7021C147.682 42.7021 155.003 41.4357 157.162 35.5541C155.2 36.643 152.929 37.0417 150.714 36.6863C145.151 34.7859 139.873 32.1357 135.027 28.8091C128.066 25.9753 120.557 24.7392 113.055 25.1919C102.387 24.5757 91.7452 26.7901 82.2083 31.6107C71.6433 36.702 62.9685 45.0173 57.4349 55.3575C51.6137 66.0426 49.4121 78.3266 51.16 90.3683C51.7912 103.107 56.5879 115.286 64.8132 125.034C68.5235 130.012 73.2735 134.123 78.733 137.081C84.1925 140.039 90.2306 141.772 96.4276 142.16L99.5842 128.248L93.9521 136.327L94.0961 127.336L89.0013 133.659L86.7658 125.082L82.6401 131.951L80.5868 122.357L74.6093 127.154L76.5283 119.258L68.6127 120.14L72.2491 114.652L65.0339 114.739L69.2363 107.408L62.8367 106.391L67.8643 99.7903L60.0255 97.4684L66.5115 91.251L60.1886 86.0316L65.197 82.1361L60.4764 75.8996L65.4752 70.0757L63.6139 62.3999L67.8643 58.6964L69.1308 49.9077L73.9281 47.5187L78.025 40.6585L85.5568 39.8238L89.2987 33.6544L96.9073 34.0382L104.094 30.1332L111.558 31.8698L120.03 29.3176L126.305 30.7856L134.49 31.9849L142.395 38.3078L130.229 34.067L124.127 36.9933L119.081 33.9135L115.607 36.2737L109.467 36.8878L103.959 36.5328L99.9392 41.4357L91.8509 41.5604L88.9725 48.1615L81.6902 50.7137L81.009 58.303L75.7895 62.3904L77.459 69.5671L72.9495 76.9838L76.4131 83.4698L73.007 89.4089L77.5357 92.364L76.5091 101.911L82.8032 103.503L84.2232 110.584L91.0833 109.865L95.3434 114.72L100.611 109.577C108.704 106.021 115.894 100.693 121.652 93.9855C128.426 84.5786 136.806 76.4394 146.406 69.9413C153.508 65.4326 162.06 63.7962 170.325 65.3647C178.913 66.8423 181.781 71.9946 188.104 77.4252C188.521 76.4623 189.183 75.6254 190.023 74.9977C189.588 76.5502 189.242 78.1263 188.987 79.7183H188.977ZM233.736 136.653C233.181 137.218 232.532 137.683 231.818 138.025C230.739 138.372 229.635 138.638 228.517 138.821C230.177 141.412 231.923 144.031 233.516 146.746C235.109 149.462 236.49 152.446 238.016 155.305C238.031 153.668 237.96 152.032 237.805 150.402C237.364 148.656 236.826 146.936 236.193 145.25C235.512 142.957 234.667 139.838 233.698 136.614L233.736 136.653ZM233.161 121.772C233.749 121.961 234.296 122.261 234.773 122.654C235.823 123.257 236.673 124.154 237.219 125.235C237.716 126.67 237.874 128.2 237.68 129.706C237.143 129.553 236.413 129.658 235.847 129.179C235.281 128.699 234.965 127.624 234.245 127.164C233.596 126.831 232.872 126.672 232.144 126.703C232.568 127.768 232.71 128.925 232.556 130.061C232.456 131.048 232.005 131.966 231.284 132.647C230.564 133.329 229.623 133.729 228.632 133.774C227.528 133.801 226.425 133.685 225.351 133.429C225.735 134.283 226.387 135.031 226.761 135.885C228.188 135.823 229.603 135.588 230.973 135.185C232.036 134.478 233.142 133.838 234.283 133.266C235.524 132.936 236.793 132.72 238.073 132.623C236.989 133.583 236.269 134.542 235.195 135.454L237.594 142.438C239.292 143.503 240.894 144.06 243.024 145.374C245.414 147.179 247.917 148.83 250.518 150.316C252.84 151.499 255.317 152.348 257.877 152.839C260.755 153.386 263.106 155.717 265.974 156.13C269.438 156.504 272.927 156.585 276.404 156.37C278.908 156.13 282.161 154.835 282.458 152.081C281.021 152.449 279.498 152.248 278.206 151.521C276.914 150.793 275.952 149.595 275.521 148.176C274.802 146.42 275.157 143.187 274.053 141.105C272.95 139.023 271.424 138.361 269.582 135.809C267.164 132.633 264.986 129.282 263.067 125.782C261.388 122.357 260.985 118.471 259.565 115.401C258.071 112.601 256.317 109.948 254.327 107.476C251.41 102.499 247.027 98.5448 241.777 96.1539C238.764 95.119 235.674 94.3203 232.537 93.7648C231.28 94.3309 229.563 94.9546 229.256 96.413C229.131 97.2516 229.186 98.1072 229.418 98.9228C229.649 99.7384 230.052 100.495 230.599 101.143C232.88 102.961 234.74 105.253 236.049 107.859C236.765 111.103 236.862 114.452 236.337 117.732C235.619 119.304 234.541 120.685 233.19 121.762L233.161 121.772ZM219.239 123.431C221.809 122.172 224.584 121.385 227.433 121.11C228.642 121.033 230.513 121.225 231.731 121.273C232.929 119.95 233.901 118.439 234.61 116.802C234.91 114.155 234.77 111.477 234.197 108.876C232.547 104.818 230.935 104.645 228.661 102.323C227.237 100.217 226.466 97.737 226.445 95.1944C226.262 94.139 225.744 92.8054 225.485 91.7116C222.314 91.1996 219.097 91.0324 215.89 91.2127C217.694 89.8519 219.007 87.943 219.632 85.7725C220.138 83.2069 219.688 80.5449 218.366 78.2887C216.797 76.125 214.937 74.1878 212.839 72.5319C210.844 70.7857 207.984 69.3465 206.123 67.9073C208.514 66.8553 210.976 65.9736 213.492 65.2687C219.719 64.3258 226.067 65.8697 231.165 69.5671C234.906 71.7228 238.31 74.4156 241.268 77.5595C244.953 81.3973 249.51 88.4686 253.07 92.6614C255.945 96.2828 259.147 99.6326 262.636 102.669C265.416 104.577 268.391 106.185 271.511 107.466L276.126 112.359L279.858 107.744L285.855 108.425L287.092 101.709L292.6 100.203L291.707 91.1167L295.67 88.3055L292.696 82.6542L295.718 76.4753L291.774 69.4136L293.3 62.6206L288.733 58.7348L288.138 51.51L281.767 49.0826L279.215 42.7981L272.019 42.7021L268.507 38.0391L263.71 38.375L258.337 37.7897L255.305 35.5445L250.892 38.4229L245.547 35.6405L234.936 39.6702L241.854 33.6544L249.021 32.5126L254.48 31.1886L261.897 33.6256L268.421 31.9753L274.715 35.6981L281.374 35.3335L284.646 41.2054L291.276 41.9634L294.864 48.4877L299.038 50.7616L300.141 59.1186L303.854 62.6398L302.223 69.9509L306.598 75.487L302.492 81.4261L306.876 85.1392L301.264 90.1093L306.944 96.0196L300.083 98.2263L304.555 104.568L298.951 105.528L302.626 112.503L296.313 112.417L299.489 117.646L292.561 116.811L294.221 124.324L288.982 119.718L287.188 128.824L283.571 122.28L281.652 130.436L277.191 124.42L277.306 132.969L272.374 125.293C272.713 129.914 273.969 134.422 276.068 138.553C284.204 137.93 291.839 134.382 297.56 128.565C304.669 121.087 310.004 112.105 313.171 102.285C315.476 90.8321 315.512 79.0381 313.276 67.5715C311.448 60.1766 308.026 53.2706 303.25 47.3364C298.709 41.9064 293.436 37.1338 287.582 33.1555C278.129 28.2247 267.525 25.9249 256.879 26.4968C252.49 26.5151 248.141 27.3277 244.041 28.8955C238.121 31.0447 233.391 35.746 227.375 38.0583C226.584 38.4477 225.714 38.6503 224.833 38.6503C223.951 38.6503 223.081 38.4477 222.29 38.0583C222.914 39.4677 223.871 40.7039 225.08 41.6601C226.289 42.6163 227.712 43.2638 229.227 43.5465C233.789 44.107 238.406 44.0651 242.957 43.4217C247.54 42.4377 252.196 41.8281 256.879 41.5988C261.895 41.7444 266.794 43.1571 271.117 45.7053C276.642 48.6473 281.28 53.0134 284.55 58.351C286.481 61.5729 287.93 65.061 288.848 68.7036C289.77 72.3888 290.256 76.1693 290.297 79.9677C290.422 83.3125 290.06 86.6576 289.222 89.8982C287.188 97.3916 282.698 105.019 273.477 103.849C267.836 103.129 259.325 92.5271 256.476 88.6413C250.955 80.3603 244.626 72.6469 237.584 65.6142C233.029 61.5352 227.305 58.994 221.225 58.351C217.05 57.6057 212.754 57.9457 208.749 59.3385C204.743 60.7314 201.163 63.1303 198.351 66.305C200.084 66.745 201.789 67.2897 203.456 67.9361C207.311 69.6377 210.857 71.9654 213.952 74.825C215.434 75.8793 216.642 77.2721 217.476 78.8876C218.311 80.503 218.747 82.2944 218.75 84.1126C218.826 86.991 216.457 89.3033 214.288 91.3854C212.954 92.6614 211.199 93.8224 210.124 94.8106C208.694 96.1251 206.929 97.5547 208.714 99.608C209.601 100.405 210.565 101.112 211.592 101.719C213.156 102.88 212.446 107.207 210.374 108.349C209.143 109.093 207.708 109.429 206.275 109.31C204.842 109.192 203.482 108.623 202.391 107.687C205.144 107.274 206.891 106.909 206.814 104.664C206.814 103.359 205.116 102.275 203.485 101.536C199.722 100.54 196.097 99.0838 192.691 97.1997C188.747 94.3213 188.661 92.8054 187.596 88.3535C185.493 88.4541 183.41 88.8184 181.398 89.4376C178.855 90.2724 176.044 92.316 173.722 92.7766C170.429 93.8632 166.876 93.8833 163.571 92.8341C156.679 92.2204 149.745 93.3728 143.422 96.1827C140.277 96.3097 137.148 96.698 134.067 97.3436C128.171 99.6669 122.669 102.887 117.756 106.89C108.246 118.065 101.712 131.461 98.7591 145.835C98.2697 151.304 99.8337 154.998 96.3796 157.665C92.9255 160.332 93.0311 167.183 91.8605 169.112C90.69 171.04 89.3371 170.177 86.8233 172.873C84.3095 175.569 82.9855 175.118 83.091 180.222C85.4848 178.499 88.2722 177.404 91.1985 177.037C93.6547 176.95 93.6835 180.184 99.9872 173.947C103.364 170.608 109.841 170.512 114.379 169.035C122.385 166.505 129.532 161.806 135.027 155.458C143.055 146.469 147.835 135.047 148.603 123.019C149.111 127.001 148.988 131.039 148.239 134.983C145.863 142.711 146.378 151.038 149.687 158.414L152.652 164.074C150.233 161.269 148.135 158.202 146.396 154.931L143.998 148.464C140.554 154.751 135.76 160.197 129.961 164.41C129.483 168.168 129.774 171.984 130.815 175.626C132.043 179.205 130.086 183.302 131.016 185.691C131.947 188.08 134.096 186.708 134.797 189.097C135.497 191.486 134.432 196.207 135.516 198.529C136.6 200.851 139.277 199.488 140.573 200.198C141.595 200.906 142.423 201.86 142.981 202.971C143.681 203.931 142.712 206.291 144.123 207.049C145.533 207.807 147.73 207.164 149.198 207.893C149.845 208.318 150.329 208.95 150.572 209.685C150.814 210.42 150.8 211.216 150.532 211.942C150.186 213.506 148.613 214.226 147.922 215.78C147.583 216.43 147.424 217.16 147.463 217.892C147.502 218.625 147.736 219.333 148.143 219.944C149.269 221.404 150.837 222.461 152.614 222.957C154.437 223.695 156.999 223.283 158.879 224.3C160.717 225.458 162.277 227.008 163.446 228.838C164.328 230.007 164.761 231.454 164.665 232.916C164.532 234.624 164.017 236.28 163.158 237.761C162.324 239.268 160.491 241.091 163.36 243.969C166.229 246.847 166.113 245.6 167.754 247.461C167.572 244.238 166.248 241.618 167.217 239.191C168.186 236.763 171.112 236.312 172.647 235.247C173.991 234.099 175.21 232.813 176.284 231.41C176.37 232.979 176.37 234.551 176.284 236.121C175.89 238.673 175.142 240.918 178.941 241.34C180.748 241.191 182.501 240.647 184.075 239.747C183.115 241.436 181.494 242.798 181.196 244.813C180.877 247.003 181.394 249.233 182.645 251.059C184.211 252.939 186.103 254.522 188.229 255.732C189.517 256.514 190.884 257.157 192.307 257.651C192.374 259.637 191.981 261.748 192.211 263.609C192.412 265.436 193.072 267.182 194.13 268.685C195.399 270.127 196.908 271.338 198.591 272.264C197.689 270.172 195.876 268.195 195.895 265.998C195.885 264.894 196.136 263.802 196.626 262.812C197.116 261.822 197.832 260.961 198.716 260.299C200.856 258.38 205.874 256.653 208.234 254.763C209.982 253.528 211.357 251.835 212.206 249.87C212.789 247.769 213.048 245.591 212.974 243.412C213.614 245.168 213.998 247.007 214.115 248.872C213.944 251.531 213.221 254.125 211.995 256.49C214.562 255.295 216.608 253.209 217.752 250.618C218.375 250.992 218.059 252.009 218.289 253.967C219.335 252.93 220.515 252.134 221.561 251.155C222.707 250.314 223.64 249.217 224.286 247.951C224.712 246.509 224.685 244.972 224.209 243.547C223.351 241.725 222.309 239.995 221.1 238.385C220.141 236.648 221.263 234.95 221.196 232.858C219.349 232.2 217.4 231.876 215.44 231.899C213.242 232.215 210.729 234.681 208.483 234.71C206.238 234.739 204.981 232.638 203.139 232.052C201.313 231.638 199.454 231.381 197.584 231.285C203.164 228.803 209.143 227.338 215.238 226.958C220.679 226.056 226.179 225.559 231.693 225.47C234.139 225.782 236.608 225.878 239.071 225.758C240.789 225.269 240.424 224.089 240.932 222.813C242.017 219.444 241.997 215.817 240.875 212.46C235.886 211.69 230.837 211.391 225.792 211.568C220.889 211.942 215.075 214.274 210.019 214.446C204.939 214.642 199.891 213.56 195.339 211.299C191.47 208.397 188.248 204.721 185.878 200.505C183.816 197.349 181.215 191.15 179.632 188.32C178.86 186.53 177.756 184.903 176.38 183.523C174.943 182.614 173.359 181.964 171.698 181.604C173.501 181.786 175.459 181.22 177.099 182.16C179.556 183.571 182.309 189.414 183.816 191.956C185.437 186.526 185.053 184.396 189.745 181.335C186.818 184.834 185.131 189.202 184.948 193.76C188.085 198.912 192.451 207.126 198.169 209.399C200.717 210.215 203.345 210.755 206.008 211.011C212.954 211.266 219.888 210.242 226.464 207.989C231.78 207.051 237.208 206.922 242.564 207.605C244.626 207.72 249.472 206.483 250.479 204.41C250.761 203.821 250.881 203.167 250.825 202.515C250.769 201.864 250.541 201.24 250.163 200.707C249.385 199.498 247.284 198.922 246.19 197.828C245.214 196.729 244.335 195.548 243.561 194.297C239.645 195.067 235.672 195.51 231.683 195.622C234.149 194.605 236.481 194.019 239.081 193.021C241.722 191.929 244.251 190.583 246.632 189.001C248.416 187.965 250.061 186.704 251.525 185.25C253.224 183.704 254.74 181.969 256.044 180.078C257.028 178.046 257.487 175.8 257.378 173.544C257.581 170.931 257.254 168.304 256.418 165.821C255.984 165.051 255.387 164.386 254.67 163.871C253.952 163.355 253.131 163.003 252.264 162.837C250.825 162.376 249.846 163.537 248.349 163.7C246.852 163.863 245.471 164.804 243.293 163.777C240.514 162.329 238.14 160.212 236.385 157.617C234.197 154.547 232.643 149.519 230.407 145.653C226.372 139.055 221.964 132.693 217.205 126.598C216.686 124.732 216.308 122.83 216.073 120.908C215.591 117.282 215.839 113.595 216.802 110.066C217.069 108.664 217.649 107.34 218.5 106.193C219.351 105.047 220.45 104.108 221.714 103.446C222.838 102.962 224.093 102.874 225.274 103.196C225.846 103.381 226.328 103.772 226.624 104.295C226.921 104.817 227.011 105.432 226.876 106.017C226.445 107.456 225.437 107.504 224.756 108.234C223.748 109.249 223.04 110.525 222.712 111.918C224.031 111.82 225.358 111.871 226.665 112.071C227.43 112.271 228.13 112.663 228.7 113.211C229.269 113.758 229.689 114.443 229.918 115.199C229.382 114.555 228.714 114.033 227.959 113.669C227.204 113.305 226.38 113.107 225.543 113.088C224.522 113.163 223.508 113.317 222.511 113.549C222.242 114.805 221.864 116.035 221.379 117.224C220.841 118.183 219.815 117.943 219.46 119.056C219.091 120.482 219.019 121.968 219.249 123.422L219.239 123.431ZM224.478 125.35C222.482 125.475 222.002 125.216 220.41 126.31L223.01 130.359C222.874 129.463 222.935 128.548 223.188 127.678C223.442 126.808 223.882 126.004 224.478 125.322V125.35ZM156.624 107.504C156.663 106.872 156.779 106.247 156.97 105.643C154.091 104.866 152.911 106.746 151.213 110.239C150.58 111.544 151.213 112.321 150.522 113.175C149.831 114.029 148.747 113.914 147.644 114.739C146.54 115.564 145.437 117.147 144.401 118.001C142.082 119.626 139.58 120.972 136.946 122.011C139.195 120.702 141.22 119.04 142.942 117.089C143.499 116.13 143.422 114.336 144.286 113.472C145.149 112.609 145.466 112.014 146.588 111.803C147.711 111.592 147.26 110.277 147.625 109.251C148.095 108.224 148.719 107.276 149.476 106.439C150.24 105.1 151.368 104.006 152.729 103.283C154.245 102.717 156.615 103.283 157.766 103.004C158.917 102.726 158.255 101.844 159.09 101.345C159.925 100.846 161.556 101.066 162.669 100.529C164.404 99.5203 165.829 98.053 166.785 96.2882C167.142 99.5819 166.738 102.914 165.605 106.027C165.047 107.862 164.122 109.565 162.887 111.033C161.652 112.501 160.132 113.703 158.419 114.566C157.108 115.207 155.74 115.721 154.331 116.101C155.032 115.142 156.029 114.729 156.432 113.223C156.65 111.312 156.714 109.387 156.624 107.466V107.504ZM175.152 121.829C176.658 121.695 178.519 122.098 179.949 122.021C181.169 121.885 182.378 121.66 183.566 121.349C183.345 119.229 183.566 115.334 181.599 113.923C179.016 113.342 176.332 113.368 173.76 114C170.424 114.998 167.163 116.232 164.003 117.694C166.658 115.566 169.651 113.899 172.858 112.762C175.804 111.877 178.895 111.583 181.954 111.899C182.914 112.167 183.134 112.57 183.729 113.395C185.331 115.998 186.218 118.976 186.301 122.031C186.843 122.735 187.345 123.468 187.807 124.228C188.236 125.261 188.499 126.355 188.584 127.471C188.047 126.694 188.373 125.715 186.886 125.139C184.975 124.81 183.017 124.869 181.129 125.312C181.987 125.861 182.651 126.665 183.028 127.612C183.406 128.558 183.477 129.598 183.232 130.587C182.988 131.576 182.44 132.463 181.665 133.124C180.89 133.785 179.928 134.187 178.913 134.273C177.674 134.592 176.361 134.442 175.226 133.853C174.091 133.263 173.214 132.275 172.763 131.078C172.434 129.826 172.365 128.52 172.561 127.241C171.342 127.092 170.105 127.24 168.956 127.673C167.806 128.106 166.778 128.81 165.96 129.726C167.133 131.796 168.875 133.487 170.978 134.6C172.472 135.446 174.091 136.049 175.775 136.384C177.914 136.778 180.095 136.881 182.261 136.691C183.878 136.513 185.383 135.781 186.521 134.619C187.567 133.31 188.267 131.759 188.555 130.109C188.514 131.522 188.245 132.918 187.759 134.245C187.051 135.573 185.962 136.66 184.632 137.364C183.302 138.069 181.791 138.359 180.294 138.198C176.945 138.161 173.632 137.511 170.517 136.279C167.605 135.079 165.151 132.982 163.513 130.292C163.172 128.531 163.108 126.728 163.321 124.947C166.507 122.837 167.284 123.355 171.055 122.731C172.628 122.472 173.712 121.887 175.209 121.772L175.152 121.829ZM183.787 100.846C185.316 101.84 187.023 102.531 188.814 102.88C190.225 102.88 190.589 101.92 191.424 101.402C192.626 105.835 194.309 110.124 196.442 114.192C197.402 115.813 197.968 115.055 198.668 116.686C199.368 118.318 199.695 121.618 200.357 123.691C201.036 125.533 201.811 127.34 202.679 129.102C200.616 126.357 198.747 123.471 197.085 120.467C195.991 118.154 196.692 117.953 195.809 115.746C194.926 113.539 193.132 110.104 191.798 107.284C190.851 107.484 189.876 107.51 188.92 107.36C188.191 107.14 188.335 106.401 187.682 105.864C187.03 105.326 185.917 105.557 184.996 104.76C184.123 103.66 183.689 102.276 183.777 100.874L183.787 100.846ZM164.943 175.319C166.267 174.245 169.846 175.099 172.513 175.319L166.756 176.797C166.574 177.449 166.66 178.207 166.219 178.716C165.778 179.224 164.952 179.474 164.3 179.858C164.367 178.14 163.609 176.375 164.933 175.3L164.943 175.319ZM189.639 139.464C190.526 137.632 191.186 135.699 191.606 133.707C191.347 136.125 191.837 138.783 190.647 140.539C189.457 142.295 187.394 141.987 185.677 142.458C187.011 141.441 188.555 140.99 189.62 139.464H189.639ZM187.222 166.329C187.163 164.59 187.579 162.868 188.424 161.347C189.269 159.826 190.511 158.563 192.019 157.694C194.116 156.492 196.41 155.671 198.793 155.266C202.649 154.922 206.534 155.429 210.172 156.754C212.496 158.087 214.739 159.558 216.888 161.158C219.181 162.51 220.813 163.422 223 164.947C226.358 167.279 228.316 169.86 230.676 171.405C232.015 171.943 233.418 172.307 234.849 172.489C233.604 172.964 232.25 173.074 230.944 172.805C229.153 172.104 227.49 171.112 226.022 169.87C224.312 168.341 222.451 166.991 220.467 165.84C219.076 165.034 216.792 164.084 215.267 163.086C213.741 162.088 211.093 159.91 209.635 159.181C207.33 158.218 204.85 157.741 202.352 157.78C199.091 157.638 195.869 158.535 193.151 160.342C192.155 161.033 191.384 162.002 190.934 163.128C190.483 164.254 190.374 165.487 190.618 166.674C191.292 165.669 192.029 164.708 192.825 163.796C193.641 163.166 194.587 162.726 195.595 162.509C196.602 162.291 197.646 162.302 198.649 162.539C199.707 162.659 200.701 163.108 201.491 163.822C202.281 164.537 202.827 165.48 203.053 166.521C202.361 165.915 201.594 165.402 200.769 164.995C199.972 164.69 199.115 164.575 198.266 164.658C197.417 164.741 196.598 165.021 195.876 165.475C193.861 166.55 194.408 168.142 194.12 169.917C193.95 170.671 193.729 171.411 193.458 172.134C192.698 171.96 191.999 171.586 191.434 171.05C191.387 171.879 191.413 172.71 191.51 173.535C191.777 174.571 192.097 175.593 192.47 176.595C190.984 175.307 189.72 173.784 188.728 172.086C187.775 170.318 187.287 168.337 187.308 166.329H187.222ZM205.346 169.38C206.816 169.41 208.259 169.785 209.558 170.474C210.64 171.072 211.65 171.789 212.571 172.614C214.916 174.922 216.576 177.834 217.368 181.028C217.783 183.39 218.03 185.779 218.107 188.176C217.555 185.927 216.833 183.724 215.948 181.585C214.394 178.243 211.743 175.535 208.435 173.909C207.68 173.559 206.836 173.452 206.018 173.602C206.286 174.053 206.737 174.427 206.756 175.089C206.806 175.579 206.715 176.073 206.494 176.513C206.273 176.953 205.932 177.321 205.509 177.574C204.646 177.948 203.692 178.057 202.767 177.886C201.843 177.715 200.99 177.272 200.318 176.615C199.625 175.979 199.143 175.146 198.938 174.229C198.732 173.311 198.812 172.352 199.167 171.481C200.04 169.332 203.379 169.332 205.346 169.409V169.38ZM105.504 175.559C104.293 175.642 103.125 176.04 102.116 176.713C101.106 177.386 100.289 178.311 99.7473 179.397C99.1462 180.329 98.2657 181.047 97.2317 181.449C96.1977 181.851 95.0632 181.915 93.9905 181.633C92.6464 181.058 91.1802 180.827 89.7245 180.961C88.2688 181.095 86.8694 181.59 85.6528 182.4C82.7168 184.492 79.541 182.909 80.0975 179.1C80.212 177.211 80.7803 175.379 81.754 173.757C82.7278 172.135 84.0784 170.772 85.6912 169.783C93.6739 165.187 88.1282 161.992 92.5034 157.377C96.8785 152.762 95.919 151.342 95.7847 145.067C89.3525 144.568 83.1051 142.68 77.4732 139.533C71.8413 136.385 66.959 132.054 63.1629 126.838C54.4121 116.78 49.4147 104.001 49.0204 90.6754C47.2754 78.1706 49.451 65.4325 55.2474 54.2157C60.3979 43.5276 69.1147 34.9704 79.896 30.018C90.2324 24.7152 101.764 22.1736 113.372 22.6397C121.426 22.0726 129.493 23.565 136.811 26.9765C141.282 30.3568 146.295 32.9524 151.635 34.6522C154.311 34.8113 156.96 34.0457 159.138 32.4839C159.589 43.8919 149.323 44.8801 140.131 45.12C130.939 45.3599 125.298 41.5604 116.845 42.9804C111.064 43.5475 105.475 45.3601 100.461 48.2934C95.4476 51.2266 91.1289 55.211 87.802 59.9725C82.488 67.4347 80.1948 76.6314 81.3832 85.7149C81.5531 89.6879 82.9838 93.5035 85.468 96.6087C87.9522 99.7139 91.3607 101.947 95.1994 102.985C99.9968 103.062 101.052 101.68 105.245 98.9459C109.438 96.2115 130.815 69.7686 138.116 63.8104C144.348 58.5882 152.256 55.7911 160.385 55.9332C165.878 55.4038 171.412 56.3477 176.418 58.6676C181.748 61.6704 186.835 65.0836 191.635 68.8763C193.918 67.1504 196.109 65.3057 198.198 63.3498C201.256 60.5422 204.911 58.4639 208.887 57.2708C212.864 56.0777 217.059 55.8008 221.158 56.4609C227.574 57.3532 233.616 60.0106 238.611 64.1366C245.89 71.1556 252.371 78.9587 257.934 87.4036C261.497 93.6751 266.936 98.6716 273.487 101.69C280.885 103.964 286.449 94.3789 287.275 89.0635C287.874 86.1167 288.234 83.1262 288.349 80.1213C288.389 76.4828 287.956 72.8546 287.064 69.3273C286.068 65.8908 284.599 62.6098 282.698 59.5791C279.625 54.5878 275.333 50.4605 270.225 47.5858C266.052 45.4513 261.533 44.0739 256.879 43.5177C252.371 43.9245 247.888 44.565 243.446 45.4366C237.843 45.8204 227.836 47.0773 223.441 42.7501C222.311 41.703 221.407 40.4362 220.783 39.0273C220.159 37.6184 219.83 36.097 219.815 34.5563C221.108 35.5826 222.671 36.2125 224.315 36.3697C227.826 36.6671 231.108 33.7983 233.909 32.1384C236.683 30.2469 239.592 28.5602 242.612 27.0917C250.953 24.3329 259.826 23.5673 268.517 24.8561C275.922 25.8535 283.078 28.2119 289.625 31.8122C295.683 35.5375 300.998 40.352 305.303 46.0123C310.239 51.9827 313.653 59.0612 315.253 66.6408C317.97 78.7883 318.026 91.3803 315.416 103.551C311.989 113.664 306.377 122.899 298.98 130.599C292.8 136.293 285.058 140.008 276.749 141.268C277.075 142.966 277.133 144.549 277.565 145.94C278.188 147.917 279.369 150.124 281.806 149.433C282.266 149.202 282.793 149.134 283.297 149.243C283.801 149.351 284.253 149.628 284.578 150.028C285.855 151.15 285.183 155.468 281.585 157.406C279.501 158.371 277.209 158.803 274.917 158.663C271.359 158.803 267.796 158.64 264.267 158.174C261.1 157.617 259.201 155.113 255.689 154.71C250.54 153.379 245.771 150.87 241.758 147.38C240.64 146.712 239.48 146.119 238.284 145.605C238.85 147.332 239.599 149.136 239.983 150.795C240.366 152.455 240.194 154 240.395 155.334C240.597 156.667 240.961 157.694 241.172 158.778C242.045 159.555 242.324 160.697 243.782 161.11C245.539 161.258 247.309 161.119 249.021 160.697C250.518 160.496 251.525 159.69 252.695 159.901C253.915 160.256 255.035 160.89 255.967 161.752C256.927 162.539 257.79 162.654 258.596 164.631C259.531 167.421 260.08 170.327 260.227 173.266C260.394 175.72 260.068 178.184 259.268 180.51C258.536 182.536 257.274 184.329 255.612 185.701C252.815 188.471 249.738 190.944 246.43 193.079C246.965 194.104 247.609 195.069 248.349 195.957C249.309 196.994 251.458 198.155 252.388 199.248C253.248 200.061 253.757 201.176 253.808 202.357C253.933 203.823 253.565 205.288 252.763 206.521C250.372 209.199 247.245 211.111 243.772 212.019C244.577 215.354 244.652 218.823 243.993 222.189C243.638 223.715 242.851 227.169 240.971 228.061C238.405 228.616 235.786 228.893 233.161 228.886C230.868 229.251 229.582 229.596 227.788 229.951C226.561 231.42 225.469 232.997 224.526 234.662C224.283 235.191 224.164 235.768 224.177 236.35C224.19 236.932 224.336 237.503 224.602 238.02C225.073 239.459 226.665 241.561 227.107 243.24C227.58 244.933 227.62 246.718 227.222 248.43C226.801 250.121 225.905 251.655 224.641 252.854C223.202 254.36 220.362 255.53 218.951 256.749C217.541 257.968 216.13 258.111 216.514 260.126C217.831 263.77 220.52 266.756 224.008 268.445C226.073 269.052 228.288 268.892 230.244 267.994C230.1 270.354 228.056 271.947 226.723 273.511C230.367 272.525 233.68 270.58 236.317 267.879C234.706 271.48 232.227 274.625 229.102 277.032C227.353 278.549 225.419 279.839 223.345 280.87C226.486 281.472 229.713 281.472 232.854 280.87C230.642 282.12 228.201 282.909 225.677 283.192C222.945 283.527 220.174 283.321 217.522 282.587C214.321 281.153 211.266 279.414 208.397 277.397C208.614 278.996 209.34 280.484 210.469 281.637C212.369 282.961 214.429 284.038 216.6 284.842C213.504 284.627 210.42 284.256 207.361 283.729C205.515 283.357 203.725 282.747 202.036 281.916C200.531 281.032 199.091 280.041 197.728 278.951C198.173 280.379 198.872 281.714 199.791 282.894C201.219 283.848 202.772 284.6 204.406 285.13C202.808 285.286 201.198 285.251 199.608 285.024C197.812 284.588 196.123 283.788 194.648 282.674C192.845 281.35 191.172 279.86 189.649 278.222C188.107 276.713 186.812 274.971 185.811 273.06C185.255 271.582 186.147 270.546 186.31 269.289C185.191 269.793 184.158 270.469 183.249 271.294C182.773 271.742 182.419 272.304 182.221 272.927C182.023 273.55 181.987 274.213 182.117 274.854C182.862 276.867 183.879 278.768 185.14 280.505C181.839 277.809 179.997 276.763 179.21 273.511C179.081 272.052 179.245 270.582 179.693 269.188C180.141 267.794 180.865 266.504 181.82 265.394C182.539 264.252 183.614 263.187 184.276 262.084C182.685 260.732 181.191 259.27 179.805 257.708C178.529 256.039 177.992 253.794 176.687 252.201C175.28 250.766 173.745 249.462 172.101 248.306C173.673 251.071 175.021 253.959 176.13 256.941C176.281 257.789 176.24 258.661 176.009 259.491C175.778 260.322 175.364 261.089 174.797 261.738C174 262.947 172.724 263.216 171.515 263.955C170.306 264.693 168.407 264.108 167.677 265.211C167.3 265.773 167.08 266.425 167.041 267.1C167.002 267.775 167.146 268.449 167.457 269.049L170.335 273.52C168.939 272.698 167.701 271.632 166.68 270.373C165.864 269.289 164.626 268.282 164.454 266.814C164.287 266.125 164.264 265.41 164.384 264.712C164.504 264.014 164.767 263.348 165.154 262.755C166.113 261.45 168.714 261.009 169.884 260.002C171.055 258.994 171.707 258.342 171.64 257.037C171.573 255.732 170.306 254.801 169.213 253.986C165.525 251.668 162.034 249.053 158.774 246.166C157.546 244.989 156.624 243.53 156.087 241.916C155.966 241.303 155.976 240.671 156.117 240.063C156.257 239.454 156.525 238.882 156.903 238.385C157.699 236.936 160.424 235.008 160.74 233.444C161.057 231.88 159.695 231.525 158.457 230.978C157.219 230.431 154.859 231.256 153.66 230.297C152.46 229.337 153.995 227.313 152.7 226.2C151.405 225.087 148.431 225.71 146.943 224.511C145.584 223.376 144.637 221.825 144.247 220.097C143.736 218.519 143.656 216.833 144.017 215.214C144.372 213.957 145.447 213.746 146.099 213.093C146.751 212.441 147.318 211.904 146.444 210.925C145.571 209.946 142.741 210.983 141.11 209.735C139.479 208.488 140.477 205.514 139.325 204.257C138.174 203 136.101 203.489 135.017 203.086C133.933 202.683 133.501 204.103 132.83 201.868C132.158 199.632 132.139 192.954 131.247 190.46C130.354 187.965 128.579 190.297 127.754 187.812C127.365 184.433 127.227 181.03 127.341 177.632L125.662 167.452C120.92 170.806 115.435 172.959 109.678 173.727C107.955 187.623 109.058 201.725 112.921 215.185C118.131 232.235 128.685 242.28 142.933 256.711C127.973 247.031 116.33 233.011 109.563 216.528C105.216 203.312 103.86 189.296 105.59 175.492" fill="#030303"/>
<path d="M6.06329 352.151H19.3421L30.6063 379.618H31.1261L42.3903 352.151H55.6691V396.514H45.2281V369.264H44.8598L34.2021 396.233H27.5303L16.8726 369.112H16.5043V396.514H6.06329V352.151ZM79.2735 396.514H67.7493L82.7177 352.151H96.9929L111.961 396.514H100.437L90.0178 363.328H89.6712L79.2735 396.514ZM77.7355 379.055H101.824V387.2H77.7355V379.055ZM124.058 396.514V352.151H134.78V370.91H135.365L150.03 352.151H162.659L146.933 371.95L162.941 396.514H150.117L139.069 379.076L134.78 384.492V396.514H124.058ZM174.209 396.514V352.151H205.142V360.859H184.931V369.957H203.561V378.687H184.931V387.806H205.142V396.514H174.209ZM219.177 396.514V352.151H249.461V360.859H229.9V369.957H247.533V378.687H229.9V396.514H219.177ZM272.903 352.151V396.514H262.18V352.151H272.903ZM286.954 396.514V352.151H297.677V387.806H316.133V396.514H286.954ZM329.003 396.514V352.151H359.937V360.859H339.726V369.957H358.355V378.687H339.726V387.806H359.937V396.514H329.003Z" fill="black"/>
</svg>
