<svg width="482" height="400" viewBox="0 0 482 400" fill="none" xmlns="http://www.w3.org/2000/svg">
<g clip-path="url(#clip0_41_1984)">
<path d="M334.159 251.373C336.642 231.92 335.901 229.068 351.316 232.22L355.228 232.543C367.081 233.05 382.522 230.754 391.698 226.772C411.311 218.221 422.937 203.941 403.604 207.691C359.497 216.242 356.463 202.206 356.463 202.206C403.038 137.258 422.508 54.8042 405.703 34.6123C359.861 -20.4361 280.519 5.60087 279.187 6.27271L278.764 6.34601C270.043 4.64808 260.295 3.6342 249.338 3.46319C229.388 3.15781 214.233 8.37986 202.743 16.5702C202.743 16.5702 61.202 -38.2399 67.7787 85.5013C69.1824 111.764 107.927 284.684 154.133 232.47C171.03 213.377 187.341 197.229 187.341 197.229C195.445 202.298 205.148 204.863 215.324 203.947L216.104 203.318C215.857 205.688 215.974 208.009 216.416 210.751C204.511 223.254 208.013 225.446 184.209 230.051C160.131 234.718 174.279 243.018 183.513 245.186C194.711 247.812 220.621 251.538 238.115 228.512L237.42 231.138C242.099 234.65 241.774 256.375 242.437 271.895C243.1 287.414 244.205 301.902 247.636 310.446C251.067 318.991 254.979 340.985 286.257 334.682C312.402 329.417 332.385 321.837 334.218 251.349" fill="#231F20"/>
<path d="M334.159 251.373C336.642 231.92 335.901 229.068 351.316 232.22L355.228 232.543C367.081 233.05 382.522 230.754 391.698 226.772C411.311 218.221 422.937 203.941 403.604 207.691C359.497 216.242 356.463 202.206 356.463 202.206C403.038 137.258 422.508 54.8042 405.703 34.6123C359.861 -20.4361 280.519 5.60087 279.187 6.27271L278.764 6.34601C270.043 4.64808 260.295 3.6342 249.338 3.46319C229.388 3.15781 214.233 8.37986 202.743 16.5702C202.743 16.5702 61.202 -38.2399 67.7787 85.5013C69.1824 111.764 107.927 284.684 154.133 232.47C171.03 213.377 187.341 197.229 187.341 197.229C195.445 202.298 205.148 204.863 215.324 203.947L216.104 203.318C215.857 205.688 215.974 208.009 216.416 210.751C204.511 223.254 208.013 225.446 184.209 230.051C160.131 234.718 174.279 243.018 183.513 245.186C194.711 247.812 220.621 251.538 238.115 228.512L237.42 231.138C242.099 234.65 241.774 256.375 242.437 271.895C243.1 287.414 244.205 301.902 247.636 310.446C251.067 318.991 254.979 340.985 286.257 334.682C312.402 329.417 332.385 321.837 334.218 251.349" stroke="#231F20" stroke-width="5.046"/>
<path d="M403.688 207.665C359.569 216.215 356.533 202.181 356.533 202.181C403.116 137.233 422.59 54.7895 405.788 34.606C359.939 -20.4299 280.578 5.59794 279.252 6.2697L278.823 6.34299C270.101 4.64525 260.351 3.63149 249.38 3.4605C229.426 3.15515 214.281 8.37661 202.777 16.566C202.777 16.566 61.201 -38.2317 67.7787 85.4892C69.1761 111.749 107.927 284.649 154.146 232.447C171.046 213.357 187.295 197.21 187.295 197.21C195.4 202.279 205.104 204.844 215.282 203.928L216.075 203.299C215.828 205.668 215.945 207.989 216.4 210.731C204.493 223.232 207.99 225.424 184.188 230.029C160.1 234.694 174.243 242.994 183.486 245.162C194.685 247.788 220.599 251.513 238.096 228.49L237.401 231.116C242.068 234.627 245.343 253.956 244.791 271.471C244.238 288.985 243.881 301.016 247.553 310.415C251.226 319.813 254.898 340.949 286.187 334.647C312.335 329.383 325.881 315.74 327.766 292.985C329.105 276.802 332.12 279.196 332.315 264.735L334.746 257.895C337.541 235.971 335.188 228.887 351.301 232.184L355.214 232.508C367.069 233.015 382.578 230.719 391.697 226.737C411.306 218.187 422.94 203.909 403.604 207.659L403.688 207.665Z" fill="#417BA2"/>
<path d="M240.036 220.68C238.822 261.474 240.341 302.489 244.579 312.538C248.816 322.587 257.908 341.94 289.163 335.646C315.265 330.383 324.766 320.2 328.88 297.708C331.917 281.224 337.771 235.216 338.517 225.802M202.655 16.163C202.655 16.163 61.1985 -38.1729 67.7791 85.4565C69.1809 111.709 107.873 284.564 154.092 232.371C170.966 213.286 186.217 198.316 186.217 198.316M279 6.23601C274.1 7.68293 357.688 -22.5071 405.186 34.5884C421.962 54.7598 402.59 137.179 356.007 202.114" stroke="white" stroke-width="1.682" stroke-linecap="round" stroke-linejoin="round"/>
<path d="M356.007 202.108C356.007 202.108 359.038 216.15 403.09 207.59C422.39 203.842 410.774 218.115 391.201 226.669C375.132 233.69 339.114 235.478 338.524 225.79C337.005 200.783 357.474 208.372 356.007 202.108ZM356.007 202.108C354.67 196.467 345.513 190.929 339.458 177.119C334.169 165.062 266.948 72.599 358.103 86.3356C361.445 85.6885 334.331 4.77078 249.024 3.45817C163.716 2.14556 166.604 102.13 166.604 102.13" stroke="white" stroke-width="1.682" stroke-linecap="round" stroke-linejoin="bevel"/>
<path d="M216.173 210.667C204.284 223.164 207.782 225.356 184.01 229.959C159.965 234.624 174.093 242.921 183.309 245.088C194.491 247.713 220.365 251.45 237.836 228.421C243.157 221.412 237.803 210.228 230.502 207.37C226.972 205.997 222.247 204.269 216.173 210.667Z" stroke="white" stroke-width="1.682" stroke-linejoin="round"/>
<path d="M215.388 210.447C214.194 203.103 217.958 194.36 221.988 184.134C228.049 168.792 242.041 153.437 230.846 104.767C222.507 68.4903 166.572 97.215 166.533 102.142C166.494 107.069 169.129 127.075 165.599 150.373C161.075 180.776 186.171 206.503 215.063 203.872" stroke="white" stroke-width="1.682" stroke-linecap="round" stroke-linejoin="round"/>
<path d="M202.084 101.391C201.824 103.07 205.355 107.557 209.936 108.155C214.518 108.754 218.438 105.256 218.697 103.577C218.957 101.898 215.427 100.048 210.845 99.4434C206.263 98.839 202.33 99.712 202.084 101.391Z" fill="white" stroke="white" stroke-width="0.561"/>
<path d="M341.697 97.966C341.944 99.6449 338.427 104.071 333.845 104.73C329.263 105.39 325.343 101.831 325.084 100.152C324.824 98.4727 328.361 96.6228 332.949 96.0184C337.537 95.414 341.451 96.2931 341.71 97.9721L341.697 97.966Z" fill="white" stroke="white" stroke-width="0.28"/>
<path d="M358.456 85.7595C359.194 98.958 355.495 107.961 355.03 122.009C354.329 142.437 365.167 165.813 348.853 189.225" stroke="white" stroke-width="1.682" stroke-linecap="round" stroke-linejoin="round"/>
<path d="M50.1628 366.534H29.093V348.406H51.3479C59.49 348.406 63.5701 351.47 63.5701 357.611C63.5701 363.559 59.1145 366.534 50.2035 366.534M65.3749 348.236C62.4799 346.023 58.436 344.917 53.2342 344.917L23 345.062V388.466H29.093L29.0387 370.006H51.5334C57.174 370.006 61.6205 368.9 64.8547 366.687C68.0889 364.474 69.7173 361.411 69.7173 357.483C69.7173 353.555 68.2698 350.491 65.3749 348.279V348.236ZM104.805 379.283C104.201 380.729 103.204 382.001 101.915 382.972C99.187 385.245 95.0255 386.377 89.4301 386.377C84.373 386.377 80.492 385.27 77.787 383.057C75.082 380.845 73.725 377.891 73.725 374.185C73.725 372.257 74.0778 370.542 74.788 369.049C75.4814 367.576 76.5354 366.278 77.8639 365.262C80.6684 363.083 84.5132 361.994 89.4301 361.994C100.304 361.994 105.741 366.057 105.741 374.181C105.741 376.113 105.425 377.806 104.814 379.27M105.918 363.27C102.209 360.377 96.7082 358.93 89.4301 358.93C82.5546 358.93 77.2351 360.406 73.4898 363.355C70.1063 366.028 68.4146 369.632 68.4146 374.164C68.4146 378.696 70.1606 382.304 73.6617 385.07C75.6411 386.586 77.9398 387.69 80.406 388.308C82.9708 388.976 85.9833 389.308 89.4392 389.308C96.6766 389.308 102.195 387.879 105.981 385.019C109.365 382.411 111.056 378.789 111.056 374.159C111.056 369.5 109.347 365.862 105.922 363.253L105.918 363.27ZM151.993 380.534C151.993 386.372 145.868 389.287 133.614 389.287C129.869 389.287 126.716 389.083 124.151 388.679C121.587 388.274 119.506 387.598 117.909 386.662C116.674 385.947 115.648 385.015 114.969 383.866C114.202 382.522 113.721 381.051 113.553 379.534L119.253 379.491C119.253 381.789 120.248 383.479 122.247 384.568C124.387 385.874 128.182 386.525 133.623 386.525C142.186 386.525 146.47 384.696 146.47 380.994C146.47 378.853 145.036 377.377 142.164 376.568C141.575 376.411 138.12 376.002 131.773 375.291L119.913 373.504C116.534 372.355 114.847 370.291 114.847 367.308C114.847 364.389 116.358 362.215 119.379 360.789C120.872 360.194 122.736 359.742 124.975 359.415C127.214 359.087 129.806 358.925 132.755 358.925C144.547 358.925 150.396 362.083 150.396 368.402H144.968C144.968 363.964 140.825 361.742 132.529 361.742C128.313 361.742 125.165 362.194 123.093 363.091C121.021 363.989 119.985 365.372 119.985 367.236C119.985 368.938 121.342 370.232 124.183 371.006C125.821 371.411 129.584 371.879 135.473 372.402C140.748 372.806 144.362 373.381 146.33 374.125C150.075 375.368 151.948 377.479 151.948 380.457L151.993 380.534ZM174.374 388.44L172.054 388.717L170.606 388.811C166.897 388.811 164.219 388.351 162.577 387.432C160.935 386.513 160.117 384.904 160.117 382.602V362.815H153.354V359.904H160.062L160.117 350.555H165.319V359.904H174.365V362.862L165.319 362.819V382.07C165.319 383.504 165.762 384.496 166.658 385.04C167.553 385.585 169.145 385.857 171.43 385.857C171.755 385.887 172.122 385.879 172.515 385.828C172.909 385.776 173.51 385.657 174.316 385.479L174.37 388.449L174.374 388.44ZM210.322 381.879C208.854 382.895 207.213 383.666 205.468 384.159C203.65 384.687 201.56 384.951 199.199 384.951C188.329 384.951 182.896 381.121 182.896 373.462C182.896 369.896 184.285 367.1 187.067 365.087C189.849 363.074 193.762 362.108 198.814 362.108C203.903 362.108 207.77 363.13 210.394 365.155C213.018 367.181 214.347 369.908 214.347 373.325C214.347 377.049 213.004 379.921 210.313 381.934M219.54 359.977H214.361L214.307 364.87C212.018 362.883 210.38 361.628 209.399 361.1C206.49 359.738 202.727 359.057 198.108 359.057C191.342 359.057 186.18 360.334 182.616 363.015C179.232 365.44 177.541 368.942 177.541 373.534C177.541 375.798 177.97 377.823 178.825 379.606C179.67 381.377 180.953 382.933 182.566 384.142C186.185 386.687 191.179 387.959 197.701 387.959C205.527 387.959 211.091 386.13 214.365 382.428V387.534C214.365 390.768 213.171 393.262 210.747 395.032C208.322 396.802 204.446 397.687 198.986 397.687C193.857 397.687 190.202 397.083 188.021 395.879C186.384 394.951 185.307 393.342 184.638 391.057H179.291C179.879 394.249 181.463 396.564 184.041 397.994C187.026 399.636 192.061 400.462 199.158 400.462C212.728 400.462 219.513 396.155 219.513 387.542V359.883L219.54 359.977ZM247.662 362.849C246.219 362.642 244.761 362.533 243.301 362.525C234.761 362.525 230.491 366.525 230.491 374.525V388.432H225.353L225.298 359.977L230.5 360.019V365.096H230.772C231.565 363.181 233.026 361.577 234.915 360.547C236.987 359.547 240.072 359.045 244.188 359.045H247.671V362.853L247.662 362.849ZM252.493 372.355C253.149 369.121 254.619 366.619 256.908 364.845C258.4 363.823 260.088 363.049 261.974 362.534C263.86 362.019 265.991 361.768 268.307 361.768C272.92 361.768 276.693 362.849 279.615 365.011C282.537 367.172 284.003 369.619 284.003 372.36H252.43M284.509 363.581C282.691 362.023 280.438 360.87 277.742 360.125C275.046 359.381 271.862 359.002 268.302 359.002C261.517 359.002 256.347 360.338 252.633 363.011C248.919 365.683 247.069 369.317 247.069 373.917C247.069 378.517 248.852 382.164 252.416 384.866C256.27 387.845 261.712 389.334 268.732 389.334C271.536 389.334 274.124 389.062 276.512 388.483C278.9 387.904 280.977 387.176 282.754 386.185C285.884 384.27 287.866 381.9 288.702 379.087H283.084C281.157 383.951 276.358 386.385 268.687 386.385C263.268 386.385 259.097 385.194 256.202 382.811C253.692 380.768 252.439 378.13 252.439 374.883H289.53C289.53 370.057 287.875 366.27 284.564 363.53L284.509 363.581Z" fill="#231F20"/>
<path d="M344.444 376.76C344.444 385.206 336.465 389.432 320.497 389.432C310.93 389.432 303.951 387.977 299.554 385.066C295.953 382.674 294.153 379.023 294.153 374.121H300.576C300.576 382.006 307.212 385.951 320.493 385.951C326.857 385.951 331.462 385.1 334.302 383.525C336.7 382.1 337.903 379.866 337.903 376.823C337.903 373.815 336.266 371.704 332.991 370.496C331.181 369.845 326.604 369.023 319.403 368.028C310.342 366.849 304.475 365.67 301.775 364.496C297.885 362.759 295.895 359.815 295.895 355.653C295.895 351.823 297.55 348.845 300.861 346.998C304.426 344.921 310.541 343.879 319.199 343.879C334.85 343.879 342.666 348.313 342.666 357.185H336.184C336.184 350.538 330.376 347.219 318.76 347.219C312.934 347.219 308.673 347.887 305.977 349.219C303.426 350.649 302.155 352.742 302.155 355.508C302.155 358.402 303.792 360.432 307.067 361.611C308.813 362.291 313.943 363.24 322.456 364.453C330.462 365.474 335.863 366.674 338.668 368.04C342.49 369.717 344.399 372.623 344.399 376.755L344.444 376.76ZM396.643 381.07C394.181 382.74 391.427 383.992 388.506 384.768C385.484 385.589 382.096 386.045 378.346 386.045C370.657 386.045 364.519 384.287 359.801 380.768C355.083 377.249 352.776 372.513 352.776 366.653C352.776 360.547 355.114 355.789 359.787 352.377C364.46 348.964 370.666 347.262 378.387 347.262C386.213 347.262 392.373 349.049 396.852 352.611C399.089 354.222 400.888 356.31 402.099 358.704C403.275 361.032 403.79 363.683 403.79 366.662C403.79 372.738 401.425 377.542 396.689 381.074M400.104 383.951C403.451 381.934 405.93 379.491 407.531 376.623C409.133 373.755 409.938 370.44 409.938 366.687C409.938 359.955 407.314 354.56 402.076 350.491C399.272 348.257 395.888 346.598 391.926 345.513C387.963 344.428 383.422 343.883 378.337 343.883C368.44 343.883 360.674 345.925 355.033 350.028C349.392 354.13 346.574 359.674 346.574 366.687C346.487 369.882 347.217 373.051 348.702 375.925C350.187 378.8 352.385 381.297 355.11 383.206C360.796 387.394 368.581 389.487 378.437 389.487C381.813 389.521 385.186 389.297 388.524 388.819C391.392 388.372 393.834 387.691 395.838 386.768L405.337 392.385L409.3 389.279L400.108 383.96L400.104 383.951ZM458.021 388.377H414.113V344.972L420.147 344.879V384.751H458.075L458.021 388.377Z" fill="#367FAF"/>
</g>
<defs>
<clipPath id="clip0_41_1984">
<rect width="481.075" height="400" fill="white"/>
</clipPath>
</defs>
</svg>
