<svg width="400" height="400" viewBox="0 0 400 400" fill="none" xmlns="http://www.w3.org/2000/svg">
<path d="M188.65 296.031C188.462 296.5 188.275 296.875 188.65 296.031ZM344.356 228.062C331.786 228.057 319.383 231.666 308.106 238.609C304.419 229.312 300.606 221.187 299.981 215.094C299.231 207.984 298.419 203.766 299.294 195.328C300.169 186.891 304.106 174.937 304.044 174.078C303.981 173.219 303.169 168.922 295.106 168.844C287.044 168.766 280.106 170.797 279.3 173.453C277.876 178.307 276.768 183.298 275.987 188.375C274.55 197.516 259.869 230.172 251.556 247.203C248.806 240.562 246.494 234.703 245.994 230.016C245.244 222.906 244.431 218.687 245.306 210.25C246.181 201.812 250.119 189.859 250.056 189C249.994 188.141 249.181 183.844 241.125 183.766C233.069 183.687 226.125 185.719 225.312 188.375C224.5 191.031 223.625 197.281 222 203.297C220.375 209.312 200.819 263.687 195.7 277.828C193.075 285.016 190.825 290.797 189.2 294.703C188.95 295.328 188.763 295.719 188.638 296.031C188.825 295.641 188.95 295.25 188.95 295.406C187.575 298.766 186.763 300.641 186.763 300.641V300.719C185.7 303.219 184.513 305.484 183.95 305.484C183.575 305.484 182.762 298.922 184.137 289.937C187.075 271.031 194.013 241.656 193.95 240.641C193.888 240.094 195.262 235.016 189.387 232.281C183.7 229.703 181.638 234 181.138 234C180.638 234 180.263 235.562 180.263 235.562C180.263 235.562 186.575 202.437 168.144 202.437C156.644 202.437 140.644 218.219 132.781 232.516C127.844 235.875 117.156 243.141 105.906 250.875C101.594 253.844 97.1562 256.891 92.9687 259.781C92.6562 259.391 92.4062 259 92.0938 258.609C69.725 228.766 28.425 207.672 30.175 167.594C30.8 152.984 34.8625 114.625 109.594 68.0625C170.844 29.9375 219.812 40.4062 228.244 63.6875C240.369 96.8906 202.062 158.687 138.456 167.594C114.212 170.953 101.469 159.234 98.2812 154.859C94.9687 150.25 94.4687 150.016 93.2187 150.875C91.1562 152.281 92.4687 156.344 93.2187 158.766C95.0937 164.937 102.906 175.875 116.212 181.344C127.9 186.109 156.325 188.766 190.694 172.125C229.306 153.531 259.362 101.734 250.55 58.375C241.575 14.3125 183.125 -0.140628 127.856 24.3906C94.925 39 59.3125 61.9687 33.6938 91.8906C3.2625 127.516 -1.60625 158.531 0.393751 171.5C7.5125 217.516 58.25 247.516 78.5563 269.703C77.5563 270.406 76.6188 271.031 75.7438 271.656C65.5625 277.984 26.8813 303.297 17.2 330.016C6.2625 360.328 19.0125 382.047 27.3813 385.016C53.5 394.078 80.2437 377.75 94.6125 350.953C108.981 324.156 107.237 289.156 100.612 273.219C100.55 272.984 100.425 272.828 100.362 272.594C102.987 270.641 105.675 268.687 108.362 266.734C113.544 262.906 118.606 259.391 123.044 256.344C120.544 264.781 118.731 274.937 117.794 289.625C116.669 306.812 122.356 329.078 129.731 337.828C132.981 341.656 136.913 341.734 139.35 341.734C147.975 341.734 151.85 332.828 156.156 322.203C161.469 309.234 166.156 294.156 166.156 294.156C166.156 294.156 160.281 334.937 176.344 334.937C182.212 334.937 188.087 325.484 190.719 320.641V320.719C190.719 320.719 190.844 320.406 191.156 319.781C191.781 318.609 192.094 317.906 192.094 317.906V317.672C194.469 312.594 199.656 300.953 207.462 281.734C217.587 256.891 227.269 225.875 227.269 225.875C228.204 232.693 229.499 239.426 231.144 246.031C232.894 253.453 236.581 261.578 239.519 269.469C237.144 273.531 235.706 275.875 235.706 275.875C235.711 275.935 235.733 275.991 235.769 276.031C233.894 279.156 231.769 282.516 229.581 285.797C221.587 297.672 212.081 311.266 210.831 315.172C209.331 319.781 209.706 323.219 212.581 325.875C214.706 327.906 218.456 328.219 222.388 327.828C229.575 327.203 234.638 325.016 237.075 323.609C241.569 321.595 245.816 318.808 249.694 315.328C257.506 308.141 262.256 297.828 261.819 284.234C261.569 276.734 259.631 269.234 257.256 262.203C257.944 260.953 258.694 259.625 259.381 258.297C271.75 235.719 281.312 210.937 281.312 210.937C282.248 217.755 283.542 224.489 285.187 231.094C286.687 237.422 289.619 244.375 292.306 251.172C280.687 262.969 273.5 276.641 271 285.625C266.375 302.266 270 309.766 276.812 311.484C279.875 312.266 284.25 310.469 287.5 308.75C292.327 306.74 296.878 303.816 300.994 300.078C308.806 292.891 316.362 282.812 315.862 269.141C315.675 262.969 314.3 256.797 312.488 250.859C322.3 245.703 335.044 242.891 351.294 245.234C386.094 250.312 392.906 277.5 391.594 288.828C390.281 300.156 382.969 306.484 380.531 308.359C378.094 310.234 377.344 310.937 377.531 312.344C377.844 314.375 378.969 314.297 381.031 313.828C383.906 313.203 399.275 304.609 399.963 283.594C400.963 257.031 380.531 227.812 344.338 228.047L344.356 228.062ZM76.1188 341.109C64.625 356.812 48.5 362.75 41.5688 357.75C34.1313 352.344 37.0688 329.234 51.25 312.5C59.875 302.344 70.9938 292.969 78.3688 287.187C80.0563 285.937 82.4937 284.062 85.4937 281.797C85.9937 281.406 86.2437 281.25 86.2437 281.25C86.8062 280.781 87.4312 280.391 88.0562 279.922C93.2375 303.672 88.2438 324.609 76.1188 341.094V341.109ZM160.094 269.703C156.094 281.969 147.662 313.219 142.537 311.578C138.162 310.172 135.475 286.344 141.662 262.906C144.787 251.109 151.412 237.047 155.35 231.578C161.656 222.75 168.594 219.937 170.219 223.453C172.406 228.062 162.594 262.047 160.094 269.703ZM229.469 311.109C227.781 312.203 226.219 312.906 225.469 312.359C224.906 311.969 226.156 310.484 226.156 310.484C226.156 310.484 234.844 298.844 238.281 293.531C240.281 290.406 242.594 286.734 245.088 282.672C245.088 283.062 245.15 283.453 245.15 283.922C245.069 297.906 234.325 307.359 229.45 311.109H229.469ZM282.956 295.875C281.706 294.781 281.894 291.109 286.081 279.703C287.706 275.25 291.45 267.75 297.956 260.562C298.693 263.283 299.093 266.128 299.144 269C299.081 286.578 289.019 293.141 282.962 295.875H282.956Z" fill="black"/>
</svg>
