<svg width="417" height="397" viewBox="0 0 417 397" fill="none" xmlns="http://www.w3.org/2000/svg">
<path d="M294.671 0V297.19L36 258.628L294.671 346L381 310.079V36.0263L294.671 0ZM204.131 50.7115L124.856 129.103L77.1641 93.1823L57.5822 99.7325L106.011 147.908L57.5822 196.084L77.1641 202.635L124.856 166.714L204.131 245.528L251.506 225.243V71.1017L204.131 50.7115ZM204.131 106.705V189.111L149.596 147.908L204.131 106.705Z" fill="#007ACC"/>
<path d="M16.5699 392.199H13.256L0 356.162H3.75855L14.1047 384.991L14.5896 386.593C14.5896 387.154 14.8321 387.714 14.9938 388.315C15.0854 387.788 15.2068 387.267 15.3575 386.753C15.3575 386.193 15.6808 385.552 15.9233 384.911L26.6736 356.082H30.3109L16.5699 392.199ZM36.9388 359.886C36.3393 359.874 35.7645 359.647 35.3223 359.245C35.1144 359.012 34.9569 358.739 34.8596 358.442C34.7623 358.146 34.7272 357.834 34.7565 357.524C34.7502 357.224 34.8082 356.926 34.9267 356.65C35.0451 356.374 35.2212 356.126 35.4435 355.922C35.8729 355.496 36.4525 355.252 37.0601 355.241C37.3685 355.2 37.6812 355.2 37.9896 355.241C38.2682 355.363 38.527 355.525 38.7575 355.722C38.9641 355.929 39.1287 356.174 39.2425 356.442C39.3716 356.733 39.4403 357.046 39.4445 357.363C39.4866 357.669 39.4866 357.979 39.4445 358.284C39.317 358.555 39.1387 358.8 38.9191 359.005C38.7163 359.236 38.4493 359.404 38.1513 359.486C37.7989 359.741 37.3751 359.88 36.9388 359.886ZM35.3223 392.199V366.413H38.7979V392.199H35.3223ZM45.5067 387.554C46.5278 388.34 47.6756 388.949 48.9015 389.356C49.4975 389.595 50.1224 389.757 50.7606 389.836C51.3384 389.893 51.9206 389.893 52.4984 389.836C56.3782 389.836 58.3181 388.395 58.3181 385.512C58.3184 384.928 58.18 384.352 57.914 383.83C57.6031 383.326 57.2066 382.879 56.7419 382.509C56.1875 382.123 55.591 381.801 54.9637 381.548C54.1869 381.15 53.3911 380.789 52.5792 380.467C51.5016 380.061 50.4605 379.565 49.4673 378.985C48.6838 378.534 47.9637 377.982 47.3254 377.344C46.7829 376.777 46.3574 376.11 46.0725 375.382C45.8041 374.595 45.6676 373.77 45.6684 372.939C45.6438 371.875 45.909 370.824 46.4362 369.896C46.9396 369.003 47.6283 368.225 48.457 367.614C49.3413 366.989 50.3248 366.516 51.3668 366.212C52.5104 365.89 53.694 365.729 54.8829 365.732C56.921 365.679 58.9428 366.104 60.7834 366.973V370.377C58.9135 369.151 56.721 368.496 54.4787 368.495C53.7258 368.491 52.9766 368.599 52.2559 368.815C51.6301 368.989 51.0413 369.274 50.5181 369.656C50.0884 370.039 49.7204 370.484 49.4269 370.977C49.1644 371.514 49.0263 372.102 49.0228 372.699C49.0164 373.275 49.1263 373.847 49.3461 374.381C49.5671 374.865 49.8831 375.3 50.2756 375.662C50.7914 376.105 51.3617 376.482 51.973 376.783C52.6601 377.184 53.5088 377.504 54.4787 377.904L57.7119 379.386C58.5451 379.817 59.308 380.371 59.9751 381.027C60.5617 381.559 61.0179 382.216 61.3088 382.949C61.6108 383.743 61.7615 384.584 61.7533 385.432C61.7768 386.504 61.5265 387.564 61.0259 388.515C60.5347 389.428 59.8444 390.222 59.0051 390.837C58.0962 391.47 57.0847 391.944 56.0145 392.239C54.7759 392.568 53.4979 392.73 52.2155 392.719C49.8963 392.783 47.6038 392.215 45.5875 391.078L45.5067 387.554ZM85.1129 392.199V387.794C84.4003 389.315 83.2568 390.598 81.8218 391.486C80.3868 392.375 78.722 392.831 77.03 392.799C70.8466 392.799 67.7347 389.036 67.7347 381.588V366.373H70.9678V380.907C70.7751 383.306 71.3553 385.703 72.6248 387.754C73.2215 388.515 73.9986 389.117 74.8869 389.509C75.7753 389.9 76.7475 390.067 77.717 389.997C78.7747 389.997 79.8209 389.779 80.7886 389.356C81.7081 388.919 82.5215 388.291 83.173 387.514C83.8558 386.676 84.3889 385.728 84.7492 384.711C85.1185 383.546 85.2959 382.329 85.2746 381.108V366.413H88.5077V392.199H85.1129ZM111.786 392.199V387.634C111.023 389.261 109.82 390.647 108.311 391.638C106.815 392.543 105.093 393.015 103.34 393C102.188 393.002 101.042 392.827 99.945 392.479C98.9996 392.151 98.1328 391.633 97.3989 390.958C96.679 390.315 96.1129 389.522 95.7419 388.635C95.3606 387.679 95.1685 386.66 95.1761 385.632C95.1252 384.605 95.2931 383.578 95.6691 382.619C96.0452 381.66 96.6208 380.79 97.3585 380.066C99.2304 378.502 101.546 377.55 103.986 377.344L112.069 376.223C112.069 371.258 110.129 368.775 106.25 368.775C103.13 368.818 100.136 370.001 97.8435 372.098V368.575C98.4102 368.164 99.0199 367.815 99.6621 367.534C100.363 367.202 101.094 366.934 101.844 366.733C102.615 366.504 103.397 366.317 104.189 366.172C104.969 366.114 105.752 366.114 106.533 366.172C107.74 366.087 108.952 366.257 110.087 366.671C111.223 367.085 112.257 367.734 113.12 368.575C114.754 370.612 115.549 373.188 115.343 375.782V392.599L111.786 392.199ZM105.078 379.626C104.066 379.768 103.067 379.982 102.087 380.267C101.349 380.486 100.653 380.824 100.026 381.268C99.5061 381.696 99.1031 382.247 98.8538 382.869C98.5592 383.608 98.4216 384.398 98.4497 385.192C98.4453 385.85 98.5688 386.502 98.8134 387.114C99.0511 387.699 99.425 388.22 99.9046 388.635C100.387 389.092 100.967 389.434 101.602 389.636C102.329 389.889 103.095 390.011 103.865 389.997C104.967 390.004 106.057 389.772 107.058 389.316C108.003 388.881 108.853 388.269 109.564 387.514C110.287 386.705 110.849 385.767 111.221 384.751C111.601 383.615 111.792 382.425 111.786 381.228V378.705L105.078 379.626ZM122.86 392.199V354H126.093V392.199H122.86ZM147.917 386.913C148.555 387.369 149.231 387.771 149.938 388.115C150.67 388.473 151.426 388.78 152.201 389.036C153.009 389.276 153.818 389.436 154.545 389.596C155.285 389.653 156.028 389.653 156.768 389.596C158.958 389.751 161.14 389.204 162.992 388.035C163.668 387.486 164.204 386.786 164.555 385.993C164.907 385.199 165.063 384.335 165.012 383.47C165.044 382.608 164.892 381.748 164.568 380.947C164.186 380.191 163.665 379.512 163.032 378.945C162.257 378.237 161.403 377.62 160.486 377.103L156.849 375.021L152.807 372.619C151.823 371.959 150.915 371.194 150.099 370.337C149.43 369.585 148.909 368.716 148.564 367.774C148.209 366.784 148.031 365.741 148.038 364.691C148.004 363.295 148.338 361.915 149.008 360.687C149.615 359.518 150.486 358.504 151.554 357.724C152.675 356.888 153.933 356.251 155.272 355.842C156.845 355.463 158.467 355.328 160.082 355.441C162.532 355.379 164.972 355.772 167.276 356.603V360.326C164.956 359.048 162.331 358.412 159.678 358.485C158.653 358.471 157.632 358.606 156.647 358.885C155.739 359.11 154.877 359.489 154.1 360.006C153.413 360.514 152.835 361.154 152.403 361.888C151.986 362.692 151.778 363.587 151.797 364.491C151.769 365.323 151.906 366.153 152.201 366.933C152.513 367.665 152.982 368.321 153.575 368.855C154.307 369.55 155.121 370.155 156 370.657L159.637 372.659C161.028 373.371 162.377 374.16 163.679 375.021C164.723 375.697 165.674 376.504 166.508 377.424C167.244 378.185 167.82 379.083 168.205 380.066C168.586 381.05 168.778 382.096 168.771 383.15C168.779 384.533 168.475 385.901 167.882 387.154C167.303 388.329 166.443 389.347 165.376 390.117C164.238 390.953 162.948 391.564 161.577 391.919C159.994 392.33 158.364 392.532 156.727 392.519C156.041 392.57 155.352 392.57 154.666 392.519C153.849 392.444 153.039 392.311 152.241 392.119C151.462 391.966 150.692 391.765 149.938 391.518C149.309 391.304 148.701 391.036 148.119 390.717L147.917 386.913ZM185.098 391.878C183.957 392.442 182.696 392.731 181.421 392.719C177.218 392.719 175.116 390.317 175.116 385.512V369.215H170.549V366.413H175.116V359.926L178.349 358.845V366.453H185.058V369.256H178.349V385.032C178.203 386.421 178.5 387.822 179.198 389.036C179.553 389.447 180.003 389.767 180.509 389.969C181.016 390.171 181.564 390.249 182.108 390.197C183.162 390.188 184.189 389.867 185.058 389.276L185.098 391.878ZM207.448 392.199V387.794C206.739 389.318 205.597 390.604 204.161 391.493C202.725 392.382 201.058 392.836 199.365 392.799C193.181 392.799 190.069 389.036 190.069 381.588V366.373H193.302V380.907C193.129 383.304 193.708 385.696 194.959 387.754C195.561 388.509 196.339 389.108 197.226 389.499C198.113 389.889 199.083 390.06 200.052 389.997C201.109 389.997 202.156 389.779 203.123 389.356C204.049 388.93 204.865 388.3 205.508 387.514C206.218 386.695 206.755 385.741 207.084 384.711C207.468 383.548 207.659 382.331 207.65 381.108V366.413H210.883V392.199H207.448ZM237.354 392.199V387.634C236.509 389.219 235.217 390.527 233.636 391.398C231.976 392.335 230.09 392.805 228.18 392.759C226.661 392.776 225.157 392.462 223.775 391.838C222.438 391.271 221.259 390.392 220.34 389.276C219.355 388.096 218.613 386.735 218.157 385.272C217.603 383.523 217.33 381.699 217.349 379.866C217.324 377.938 217.61 376.019 218.198 374.181C218.704 372.467 219.556 370.873 220.703 369.496C221.728 368.274 223.011 367.29 224.462 366.613C225.999 365.929 227.668 365.587 229.352 365.612C230.988 365.504 232.621 365.866 234.054 366.655C235.488 367.443 236.662 368.624 237.435 370.056V354.04H240.668V392.239L237.354 392.199ZM237.354 376.583C237.371 375.535 237.207 374.493 236.869 373.5C236.491 372.559 235.928 371.701 235.212 370.977C234.505 370.24 233.652 369.654 232.707 369.256C231.697 368.829 230.611 368.612 229.514 368.615C228.287 368.616 227.075 368.875 225.957 369.376C224.869 369.888 223.915 370.641 223.169 371.578C222.349 372.602 221.732 373.77 221.35 375.021C220.903 376.516 220.671 378.067 220.663 379.626C220.641 381.103 220.845 382.575 221.269 383.99C221.598 385.182 222.161 386.298 222.926 387.274C223.631 388.151 224.529 388.856 225.552 389.335C226.575 389.814 227.695 390.054 228.827 390.037C230.064 390.054 231.291 389.808 232.424 389.316C233.452 388.855 234.372 388.186 235.124 387.351C235.876 386.517 236.443 385.536 236.788 384.471C237.199 383.341 237.404 382.148 237.395 380.947L237.354 376.583ZM250.57 359.886C249.968 359.886 249.389 359.657 248.953 359.245C248.723 359.031 248.542 358.77 248.423 358.479C248.304 358.189 248.251 357.877 248.266 357.564C248.252 357.263 248.306 356.962 248.425 356.685C248.544 356.408 248.724 356.161 248.953 355.962C249.16 355.744 249.411 355.571 249.689 355.453C249.968 355.336 250.267 355.278 250.57 355.281C250.865 355.24 251.164 355.24 251.459 355.281C251.747 355.384 252.009 355.548 252.227 355.762C252.446 355.967 252.625 356.212 252.752 356.483C252.968 357.078 252.968 357.729 252.752 358.324C252.639 358.604 252.459 358.851 252.227 359.045C252.04 359.275 251.786 359.443 251.499 359.526C251.219 359.709 250.902 359.832 250.57 359.886ZM248.953 392.199V366.413H252.186V392.199H248.953ZM271.262 392.839C269.477 392.868 267.704 392.541 266.049 391.878C264.517 391.275 263.137 390.345 262.007 389.156C260.921 387.992 260.07 386.633 259.501 385.152C258.916 383.396 258.629 381.555 258.653 379.706C258.613 377.745 258.928 375.792 259.582 373.94C260.15 372.306 261.075 370.816 262.29 369.576C263.411 368.376 264.793 367.445 266.331 366.853C268.032 366.204 269.844 365.891 271.666 365.932C273.409 365.894 275.142 366.207 276.758 366.853C278.299 367.402 279.685 368.308 280.8 369.496C281.82 370.689 282.577 372.08 283.023 373.58C284.154 377.219 284.154 381.112 283.023 384.751C282.457 386.306 281.607 387.745 280.517 388.996C279.401 390.211 278.018 391.156 276.475 391.758C274.833 392.477 273.057 392.845 271.262 392.839ZM271.504 368.615C270.119 368.59 268.743 368.849 267.463 369.376C266.329 369.851 265.32 370.577 264.513 371.498C263.66 372.498 263.015 373.654 262.613 374.901C262.156 376.393 261.938 377.947 261.967 379.506C261.94 380.986 262.158 382.46 262.613 383.87C263.024 385.089 263.669 386.218 264.513 387.194C265.299 388.12 266.296 388.848 267.423 389.316C268.701 389.847 270.078 390.106 271.464 390.077C272.848 390.134 274.228 389.888 275.506 389.356C276.61 388.87 277.591 388.145 278.375 387.234C279.198 386.269 279.792 385.133 280.113 383.91C280.536 382.426 280.74 380.888 280.719 379.346C280.928 376.485 280.096 373.644 278.375 371.338C277.531 370.375 276.468 369.625 275.273 369.152C274.078 368.678 272.786 368.494 271.504 368.615ZM329.782 390.837C326.75 392.197 323.45 392.867 320.123 392.799C317.727 392.829 315.349 392.38 313.131 391.478C311.09 390.615 309.258 389.332 307.756 387.714C306.224 386.077 305.054 384.14 304.321 382.028C303.494 379.715 303.083 377.275 303.109 374.821C303.09 372.23 303.528 369.656 304.402 367.213C305.198 364.934 306.449 362.837 308.08 361.047C309.705 359.33 311.673 357.966 313.859 357.043C316.256 356.019 318.847 355.514 321.457 355.562C324.295 355.524 327.116 355.999 329.782 356.963V360.567C327.182 359.292 324.318 358.634 321.416 358.645C319.253 358.605 317.106 359.015 315.112 359.846C313.341 360.611 311.766 361.76 310.504 363.209C309.215 364.698 308.239 366.427 307.635 368.295C306.957 370.363 306.616 372.526 306.625 374.701C306.623 376.696 306.923 378.68 307.514 380.587C308.077 382.338 308.968 383.968 310.141 385.392C311.324 386.802 312.817 387.925 314.505 388.675C316.398 389.514 318.455 389.925 320.527 389.876C323.754 389.92 326.94 389.148 329.782 387.634V390.837ZM347.565 392.839C345.793 392.865 344.034 392.538 342.392 391.878C340.854 391.285 339.472 390.354 338.35 389.156C337.251 388.002 336.399 386.64 335.844 385.152C335.259 383.396 334.972 381.555 334.996 379.706C334.963 377.748 335.263 375.799 335.885 373.94C336.472 372.306 337.41 370.817 338.633 369.576C339.747 368.368 341.131 367.436 342.674 366.853C344.375 366.204 346.187 365.891 348.009 365.932C349.739 365.894 351.458 366.207 353.061 366.853C354.607 367.392 355.995 368.3 357.102 369.496C358.195 370.731 359.02 372.176 359.527 373.74C360.121 375.563 360.408 377.47 360.376 379.386C360.403 381.265 360.102 383.134 359.487 384.911C358.956 386.482 358.103 387.927 356.981 389.156C355.869 390.375 354.485 391.321 352.94 391.919C351.235 392.602 349.402 392.916 347.565 392.839ZM347.847 368.615C346.461 368.585 345.085 368.845 343.806 369.376C342.672 369.851 341.663 370.577 340.856 371.498C339.989 372.488 339.342 373.648 338.956 374.901C338.499 376.393 338.281 377.947 338.31 379.506C338.283 380.986 338.501 382.46 338.956 383.87C339.353 385.087 339.985 386.215 340.815 387.194C341.617 388.121 342.628 388.848 343.766 389.316C346.242 390.302 349.008 390.302 351.485 389.316C352.587 388.845 353.557 388.117 354.314 387.194C355.149 386.231 355.756 385.095 356.092 383.87C356.515 382.386 356.719 380.848 356.698 379.306C356.907 376.445 356.076 373.604 354.354 371.298C353.544 370.393 352.538 369.681 351.411 369.217C350.285 368.752 349.066 368.546 347.847 368.615ZM385.029 392.239V387.634C384.198 389.216 382.92 390.524 381.351 391.398C379.843 392.211 378.167 392.673 376.452 392.749C374.736 392.826 373.025 392.514 371.45 391.838C370.118 391.262 368.941 390.384 368.014 389.276C367.043 388.086 366.303 386.729 365.832 385.272C365.291 383.521 365.032 381.697 365.064 379.866C365.039 377.938 365.325 376.019 365.913 374.181C366.424 372.558 367.247 371.049 368.338 369.736C369.346 368.497 370.633 367.509 372.096 366.853C373.63 366.161 375.301 365.819 376.986 365.852C378.624 365.734 380.26 366.092 381.696 366.882C383.131 367.671 384.304 368.858 385.069 370.297V354H388.302V392.199L385.029 392.239ZM385.029 376.623C385.035 375.54 384.829 374.465 384.423 373.46C384.059 372.52 383.51 371.663 382.806 370.937C382.089 370.211 381.238 369.627 380.3 369.215C379.276 368.793 378.177 368.575 377.067 368.575C375.841 368.579 374.629 368.838 373.511 369.336C372.442 369.86 371.503 370.612 370.762 371.538C369.928 372.552 369.309 373.724 368.944 374.981C368.486 376.487 368.268 378.054 368.297 379.626C368.282 381.1 368.473 382.568 368.863 383.99C369.205 385.185 369.781 386.301 370.56 387.274C371.243 388.135 372.114 388.833 373.107 389.316C374.155 389.804 375.302 390.05 376.461 390.037C377.685 390.053 378.898 389.807 380.017 389.316C381.036 388.853 381.955 388.201 382.725 387.394C383.468 386.532 384.044 385.541 384.423 384.471C384.833 383.341 385.038 382.148 385.029 380.947V376.623ZM398.204 379.906C398.193 381.346 398.411 382.778 398.85 384.151C399.188 385.331 399.781 386.424 400.588 387.354C401.343 388.233 402.299 388.919 403.377 389.356C404.538 389.851 405.791 390.097 407.055 390.077C410.098 390.027 413.034 388.954 415.38 387.034V390.237C412.722 392.047 409.551 392.973 406.327 392.879C404.704 392.896 403.095 392.582 401.599 391.959C400.185 391.388 398.935 390.48 397.961 389.316C396.898 388.073 396.1 386.629 395.617 385.072C395.055 383.215 394.782 381.284 394.809 379.346C394.805 377.521 395.106 375.708 395.698 373.98C396.25 372.428 397.086 370.989 398.163 369.736C399.201 368.538 400.482 367.569 401.922 366.893C403.4 366.205 405.018 365.863 406.651 365.892C408.175 365.865 409.689 366.151 411.096 366.733C412.352 367.303 413.459 368.152 414.329 369.215C415.259 370.402 415.933 371.765 416.31 373.22C416.8 374.911 417.031 376.665 416.997 378.425V380.026L398.204 379.906ZM413.642 377.103C413.745 374.862 413.06 372.654 411.702 370.857C411.082 370.114 410.294 369.524 409.403 369.135C408.513 368.746 407.542 368.568 406.57 368.615C405.515 368.605 404.47 368.81 403.498 369.215C402.57 369.606 401.732 370.178 401.033 370.897C400.286 371.666 399.684 372.561 399.255 373.54C398.752 374.672 398.425 375.874 398.285 377.103H413.642Z" fill="#007ACC"/>
</svg>
